{"glyphs":{"0":{"ha":336,"x_min":0,"x_max":0,"o":"m 292 825 b 153 1032 292 908 264 1032 b 13 825 49 1032 13 931 l 13 196 b 153 -11 13 99 44 -11 b 292 196 258 -11 292 90 z m 176 196 b 154 135 176 164 168 135 b 131 196 142 135 131 158 l 131 825 b 154 886 131 858 139 886 b 176 825 169 886 176 857 z "},"1":{"ha":235,"x_min":0,"x_max":0,"o":"m 57 800 l 57 0 l 172 0 l 172 1021 l 93 1021 b 75 968 89 1003 82 982 b -3 893 58 940 31 906 l -3 800 z "},"2":{"ha":339,"x_min":0,"x_max":0,"o":"m 128 697 l 128 768 b 151 893 128 785 129 893 b 175 768 171 893 175 800 b 10 149 171 568 92 365 l 10 0 l 279 0 l 279 149 l 136 149 b 286 778 199 317 286 593 b 151 1032 286 867 281 1032 b 13 768 26 1032 14 869 l 13 697 z "},"3":{"ha":321,"x_min":0,"x_max":0,"o":"m 10 294 b 147 -11 10 210 11 -11 b 283 261 265 -11 283 128 b 211 521 283 410 258 489 b 281 804 265 586 281 656 b 143 1032 281 883 256 1032 b 6 726 15 1032 6 829 l 119 726 b 144 896 119 785 122 896 b 165 761 165 896 165 801 b 89 585 165 676 169 590 l 89 461 b 171 260 156 457 168 414 b 147 121 171 215 169 121 b 122 294 124 121 122 233 z "},"4":{"ha":325,"x_min":0,"x_max":0,"o":"m 158 0 l 257 0 l 257 222 l 299 222 l 299 354 l 257 354 l 257 1021 l 144 1021 l 1 354 l 1 222 l 158 222 z m 161 354 l 99 354 l 161 669 z "},"5":{"ha":328,"x_min":0,"x_max":0,"o":"m 178 228 b 153 119 178 147 167 119 b 132 229 139 119 132 178 l 132 297 l 18 297 b 147 -11 18 211 8 -11 b 290 242 271 -11 289 139 l 290 483 b 186 694 290 558 285 694 b 126 654 164 694 129 672 l 126 872 l 265 872 l 265 1021 l 24 1021 l 24 483 l 124 483 b 153 558 124 497 131 558 b 178 483 167 558 178 526 z "},"6":{"ha":326,"x_min":0,"x_max":0,"o":"m 292 446 b 178 633 292 518 285 633 b 129 610 157 633 132 618 l 129 799 b 151 901 129 811 129 901 b 176 726 176 901 176 772 l 288 726 l 288 799 b 151 1032 288 882 274 1032 b 14 799 33 1032 15 899 l 14 196 b 144 -11 14 124 33 -11 b 292 196 253 -11 290 104 z m 129 475 b 154 517 131 490 133 517 b 181 471 176 517 181 483 l 181 179 b 154 119 181 160 176 119 b 129 179 133 119 129 160 z "},"7":{"ha":282,"x_min":0,"x_max":0,"o":"m 36 0 l 154 0 l 244 871 l 244 1021 l -8 1021 l -8 872 l 128 872 z "},"8":{"ha":325,"x_min":0,"x_max":0,"o":"m 288 868 b 156 1032 288 942 253 1032 b 24 868 65 1032 24 947 l 24 671 b 78 539 24 604 46 571 b 19 393 46 507 19 465 l 19 176 b 156 -11 19 99 54 -11 b 292 176 254 -11 292 90 l 292 393 b 233 539 292 465 269 518 b 288 671 269 569 288 604 z m 179 736 b 179 642 179 689 179 668 b 156 596 179 615 167 596 b 132 642 144 596 132 615 b 132 736 132 668 132 689 b 132 847 132 797 132 818 b 156 904 132 876 139 904 b 179 847 172 904 179 876 b 179 736 179 818 179 797 z m 179 278 b 179 169 179 231 179 196 b 156 124 179 143 167 124 b 132 169 144 124 132 143 b 132 278 132 196 132 231 b 132 403 132 339 132 374 b 156 461 132 432 139 461 b 179 403 172 461 179 432 b 179 278 179 374 179 339 z "},"9":{"ha":326,"x_min":0,"x_max":0,"o":"m 3 575 b 117 388 3 503 10 388 b 165 411 138 388 163 403 l 165 222 b 143 119 165 210 165 119 b 118 294 118 119 118 249 l 7 294 l 7 222 b 143 -11 7 139 21 -11 b 281 222 261 -11 279 122 l 281 825 b 150 1032 281 897 261 1032 b 3 825 42 1032 4 917 z m 165 546 b 140 504 164 531 161 504 b 114 550 118 504 114 538 l 114 842 b 140 901 114 861 118 901 b 165 842 161 901 165 861 z "},"\r":{"ha":150,"x_min":0,"x_max":0,"o":""}," ":{"ha":150,"x_min":0,"x_max":0,"o":""},"Â":{"ha":353,"x_min":0,"x_max":0,"o":"m 101 1236 l 43 1111 l 133 1111 l 157 1165 l 181 1111 l 271 1111 l 214 1236 z m 108 0 l 124 208 l 188 208 l 203 0 l 315 0 l 224 1021 l 89 1021 l -4 0 z m 178 367 l 135 367 l 156 772 z "},"Ä":{"ha":353,"x_min":0,"x_max":0,"o":"m 39 1111 l 142 1111 l 142 1247 l 39 1247 z m 174 1111 l 275 1111 l 275 1247 l 174 1247 z m 108 0 l 125 208 l 186 208 l 203 0 l 315 0 l 224 1021 l 89 1021 l -4 0 z m 176 367 l 136 367 l 156 731 z "},"À":{"ha":353,"x_min":0,"x_max":0,"o":"m 46 1236 l 113 1111 l 201 1111 l 157 1236 z m 108 0 l 124 208 l 188 208 l 203 0 l 315 0 l 224 1021 l 89 1021 l -4 0 z m 178 367 l 135 367 l 156 772 z "},"Ā":{"ha":353,"x_min":0,"x_max":0,"o":"m 64 1153 l 250 1153 l 250 1263 l 64 1263 z m 108 0 l 124 208 l 188 208 l 203 0 l 315 0 l 224 1021 l 89 1021 l -4 0 z m 178 367 l 135 367 l 156 772 z "},"Ą":{"ha":353,"x_min":0,"x_max":0,"o":"m 315 0 l 224 1021 l 89 1021 l -4 0 l 108 0 l 124 208 l 188 208 l 203 0 l 214 0 b 189 -39 203 -15 194 -29 b 186 -43 189 -40 188 -42 b 157 -143 172 -69 157 -110 b 254 -261 157 -206 192 -261 b 310 -244 272 -261 288 -257 l 315 -140 b 268 -168 294 -156 275 -168 b 239 -115 254 -168 239 -156 b 244 -69 239 -99 240 -83 b 275 0 253 -42 264 -18 z m 178 367 l 135 367 l 156 772 z "},"Å":{"ha":353,"x_min":0,"x_max":0,"o":"m 82 1194 b 157 1097 82 1138 115 1097 b 231 1194 197 1097 231 1138 b 157 1292 231 1251 197 1292 b 82 1194 115 1292 82 1251 z m 136 1194 b 157 1238 136 1221 147 1238 b 178 1194 165 1238 178 1221 b 157 1150 178 1168 165 1150 b 136 1194 147 1150 136 1168 z m 108 0 l 125 208 l 186 208 l 203 0 l 315 0 l 224 1021 l 89 1021 l -4 0 z m 176 367 l 136 367 l 156 731 z "},"Ã":{"ha":353,"x_min":0,"x_max":0,"o":"m 64 1088 b 119 1129 71 1097 103 1129 b 194 1103 147 1129 163 1103 b 250 1138 219 1103 239 1119 l 250 1253 b 194 1213 242 1239 213 1213 b 121 1236 168 1213 153 1236 b 64 1207 100 1236 76 1225 z m 108 0 l 124 208 l 188 208 l 203 0 l 315 0 l 224 1021 l 89 1021 l -4 0 z m 178 367 l 135 367 l 156 772 z "},"Æ":{"ha":489,"x_min":0,"x_max":0,"o":"m 213 0 l 443 0 l 443 154 l 328 154 l 328 435 l 411 435 l 411 599 l 328 599 l 328 867 l 443 867 l 443 1021 l 165 1021 l -6 0 l 108 0 l 144 208 l 213 208 z m 213 747 b 213 367 213 674 213 429 l 168 367 z "},"B":{"ha":344,"x_min":0,"x_max":0,"o":"m 172 0 b 274 88 232 0 261 54 b 296 289 286 121 296 213 b 286 439 296 339 293 407 b 229 539 274 496 253 517 b 278 618 256 558 268 588 b 289 750 286 651 289 701 b 242 961 289 849 271 917 b 122 1021 214 1001 181 1021 l 21 1021 l 21 0 z m 136 872 b 164 864 144 872 156 872 b 179 736 175 849 179 810 b 164 608 179 663 175 624 b 136 600 158 600 143 600 z m 136 463 b 164 456 143 463 156 464 b 179 306 178 442 179 392 b 164 156 179 218 175 171 b 136 149 157 147 142 149 z "},"C":{"ha":331,"x_min":0,"x_max":0,"o":"m 174 350 l 174 196 b 150 135 174 176 172 135 b 131 196 133 135 131 176 l 131 831 b 150 886 131 853 132 886 b 174 825 172 886 174 843 l 174 671 l 286 671 l 286 825 b 149 1032 286 897 260 1032 b 13 825 44 1032 13 915 l 13 196 b 149 -11 13 106 40 -11 b 286 196 254 -11 286 89 l 286 350 z "},"Ć":{"ha":331,"x_min":0,"x_max":0,"o":"m 111 1271 l 68 1146 l 156 1146 l 222 1271 z m 174 350 l 174 196 b 150 135 174 176 172 135 b 131 196 133 135 131 176 l 131 831 b 150 886 131 853 132 886 b 174 825 172 886 174 843 l 174 671 l 286 671 l 286 825 b 149 1032 286 897 260 1032 b 13 825 44 1032 13 915 l 13 196 b 149 -11 13 106 40 -11 b 286 196 254 -11 286 89 l 286 350 z "},"Č":{"ha":331,"x_min":0,"x_max":0,"o":"m 204 1146 l 261 1271 l 171 1271 l 147 1217 l 124 1271 l 33 1271 l 92 1146 z m 174 350 l 174 196 b 150 135 174 176 172 135 b 131 196 133 135 131 176 l 131 831 b 150 886 131 853 132 886 b 174 825 172 886 174 843 l 174 671 l 286 671 l 286 825 b 149 1032 286 897 260 1032 b 13 825 44 1032 13 915 l 13 196 b 149 -11 13 106 40 -11 b 286 196 254 -11 286 89 l 286 350 z "},"Ç":{"ha":331,"x_min":0,"x_max":0,"o":"m 174 350 l 174 196 b 150 135 174 176 172 135 b 131 196 133 135 131 176 l 131 831 b 150 886 131 853 132 886 b 174 825 172 886 174 843 l 174 671 l 286 671 l 286 825 b 149 1032 286 897 260 1032 b 13 825 44 1032 13 915 l 13 196 b 149 -11 13 106 40 -11 b 286 196 254 -11 286 89 l 286 350 z m 192 -75 l 97 -75 l 97 -171 l 122 -171 l 106 -261 l 174 -261 l 192 -171 z "},"Ĉ":{"ha":331,"x_min":0,"x_max":0,"o":"m 89 1236 l 31 1111 l 121 1111 l 144 1165 l 168 1111 l 258 1111 l 201 1236 z m 174 350 l 174 196 b 150 135 174 176 172 135 b 131 196 133 135 131 176 l 131 831 b 150 886 131 853 132 886 b 174 825 172 886 174 843 l 174 671 l 286 671 l 286 825 b 149 1032 286 897 260 1032 b 13 825 44 1032 13 915 l 13 196 b 149 -11 13 106 40 -11 b 286 196 254 -11 286 89 l 286 350 z "},"Ċ":{"ha":331,"x_min":0,"x_max":0,"o":"m 90 1142 l 200 1142 l 200 1282 l 90 1282 z m 174 350 l 174 196 b 150 135 174 176 172 135 b 131 196 133 135 131 176 l 131 831 b 150 886 131 853 132 886 b 174 825 172 886 174 843 l 174 671 l 286 671 l 286 825 b 149 1032 286 897 260 1032 b 13 825 44 1032 13 915 l 13 196 b 149 -11 13 106 40 -11 b 286 196 254 -11 286 89 l 286 350 z "},"D":{"ha":351,"x_min":0,"x_max":0,"o":"m 132 0 b 275 90 224 0 257 36 b 296 510 296 151 296 310 b 269 915 296 710 293 838 b 117 1021 244 993 208 1021 l 21 1021 l 21 0 z m 136 871 b 178 838 153 869 174 874 b 182 467 185 775 182 676 b 182 228 182 228 182 228 b 136 150 182 146 154 150 z "},"Ð":{"ha":351,"x_min":0,"x_max":0,"o":"m 21 1021 l 21 599 l -4 599 l -4 444 l 21 444 l 21 0 l 104 0 b 296 510 290 0 296 92 b 104 1021 296 935 293 1021 z m 136 444 l 157 444 l 157 599 l 136 599 l 136 871 b 178 838 153 869 174 874 b 182 467 185 775 182 676 b 182 228 182 228 182 228 b 136 150 182 146 154 150 z "},"Ď":{"ha":351,"x_min":0,"x_max":0,"o":"m 208 1146 l 265 1271 l 175 1271 l 151 1217 l 128 1271 l 38 1271 l 96 1146 z m 132 0 b 275 90 224 0 257 36 b 296 510 296 151 296 310 b 269 915 296 710 293 838 b 117 1021 244 993 208 1021 l 21 1021 l 21 0 z m 136 871 b 178 838 153 869 174 874 b 182 467 185 775 182 676 b 182 228 182 228 182 228 b 136 150 182 146 154 150 z "},"Đ":{"ha":351,"x_min":0,"x_max":0,"o":"m 21 1021 l 21 569 l -28 569 l -28 460 l 21 460 l 21 0 l 132 0 b 275 90 224 0 257 36 b 296 510 296 151 296 310 b 269 915 296 710 293 838 b 117 1021 244 993 208 1021 z m 136 460 l 158 460 l 158 569 l 136 569 l 136 871 b 178 838 153 869 174 874 b 182 467 185 775 182 676 b 182 228 182 228 182 228 b 136 150 182 146 154 150 z "},"E":{"ha":297,"x_min":0,"x_max":0,"o":"m 21 0 l 251 0 l 251 154 l 136 154 l 136 435 l 219 435 l 219 599 l 136 599 l 136 867 l 251 867 l 251 1021 l 21 1021 z "},"É":{"ha":297,"x_min":0,"x_max":0,"o":"m 126 1236 l 83 1111 l 172 1111 l 238 1236 z m 21 0 l 251 0 l 251 154 l 136 154 l 136 435 l 219 435 l 219 599 l 136 599 l 136 867 l 251 867 l 251 1021 l 21 1021 z "},"Ĕ":{"ha":297,"x_min":0,"x_max":0,"o":"m 178 1289 l 157 1257 b 129 1242 149 1249 138 1242 b 114 1246 125 1242 119 1243 b 83 1290 107 1249 97 1265 l 26 1208 b 51 1176 29 1203 39 1190 b 129 1144 68 1160 92 1144 b 175 1154 147 1144 164 1147 l 174 1154 b 232 1208 203 1169 221 1189 z m 21 0 l 251 0 l 251 154 l 136 154 l 136 435 l 219 435 l 219 599 l 136 599 l 136 867 l 251 867 l 251 1021 l 21 1021 z "},"Ě":{"ha":297,"x_min":0,"x_max":0,"o":"m 192 1146 l 249 1271 l 158 1271 l 135 1217 l 111 1271 l 21 1271 l 79 1146 z m 21 0 l 251 0 l 251 154 l 136 154 l 136 435 l 219 435 l 219 599 l 136 599 l 136 867 l 251 867 l 251 1021 l 21 1021 z "},"Ê":{"ha":297,"x_min":0,"x_max":0,"o":"m 83 1236 l 25 1111 l 115 1111 l 139 1165 l 163 1111 l 253 1111 l 196 1236 z m 21 0 l 251 0 l 251 154 l 136 154 l 136 435 l 219 435 l 219 599 l 136 599 l 136 867 l 251 867 l 251 1021 l 21 1021 z "},"Ë":{"ha":297,"x_min":0,"x_max":0,"o":"m 21 1111 l 124 1111 l 124 1247 l 21 1247 z m 156 1111 l 257 1111 l 257 1247 l 156 1247 z m 21 0 l 251 0 l 251 154 l 136 154 l 136 435 l 219 435 l 219 599 l 136 599 l 136 867 l 251 867 l 251 1021 l 21 1021 z "},"Ė":{"ha":297,"x_min":0,"x_max":0,"o":"m 74 1142 l 183 1142 l 183 1282 l 74 1282 z m 21 0 l 251 0 l 251 154 l 136 154 l 136 435 l 219 435 l 219 599 l 136 599 l 136 867 l 251 867 l 251 1021 l 21 1021 z "},"È":{"ha":297,"x_min":0,"x_max":0,"o":"m 33 1236 l 100 1111 l 189 1111 l 144 1236 z m 21 0 l 251 0 l 251 154 l 136 154 l 136 435 l 219 435 l 219 599 l 136 599 l 136 867 l 251 867 l 251 1021 l 21 1021 z "},"Ē":{"ha":297,"x_min":0,"x_max":0,"o":"m 36 1153 l 222 1153 l 222 1263 l 36 1263 z m 21 0 l 251 0 l 251 154 l 136 154 l 136 435 l 219 435 l 219 599 l 136 599 l 136 867 l 251 867 l 251 1021 l 21 1021 z "},"Ę":{"ha":297,"x_min":0,"x_max":0,"o":"m 251 0 l 251 154 l 136 154 l 136 435 l 219 435 l 219 599 l 136 599 l 136 867 l 251 867 l 251 1021 l 21 1021 l 21 0 l 153 0 b 125 -39 140 -15 131 -31 b 122 -43 125 -40 124 -42 b 93 -143 108 -69 93 -111 b 190 -261 93 -206 128 -261 b 246 -244 210 -261 224 -257 l 253 -140 b 206 -168 232 -156 213 -168 b 176 -115 192 -168 176 -156 b 182 -69 176 -99 178 -83 b 211 0 190 -39 200 -15 z "},"F":{"ha":293,"x_min":0,"x_max":0,"o":"m 260 1021 l 21 1021 l 21 0 l 136 0 l 136 444 l 219 444 l 219 599 l 136 599 l 136 867 l 260 867 z "},"G":{"ha":342,"x_min":0,"x_max":0,"o":"m 288 654 l 288 825 b 150 1032 288 907 261 1032 b 13 825 46 1032 13 917 l 13 196 b 139 -11 13 124 36 -11 b 215 38 164 -11 203 13 l 228 0 l 288 0 l 288 508 l 156 508 l 156 382 l 181 382 l 181 183 b 153 122 181 158 178 122 b 129 183 136 122 129 151 l 129 825 b 150 886 129 850 135 886 b 172 825 169 886 172 846 l 172 654 z "},"Ğ":{"ha":342,"x_min":0,"x_max":0,"o":"m 200 1288 b 151 1244 200 1288 174 1244 b 106 1289 126 1244 106 1289 l 49 1210 b 151 1143 67 1174 108 1143 b 254 1210 194 1143 229 1171 z m 288 654 l 288 825 b 150 1032 288 907 261 1032 b 13 825 46 1032 13 917 l 13 196 b 139 -11 13 124 36 -11 b 215 38 164 -11 203 13 l 228 0 l 288 0 l 288 508 l 156 508 l 156 382 l 181 382 l 181 183 b 153 122 181 158 178 122 b 129 183 136 122 129 151 l 129 825 b 150 886 129 850 135 886 b 172 825 169 886 172 846 l 172 654 z "},"Ĝ":{"ha":342,"x_min":0,"x_max":0,"o":"m 93 1236 l 35 1111 l 125 1111 l 149 1165 l 172 1111 l 263 1111 l 206 1236 z m 288 654 l 288 825 b 150 1032 288 907 261 1032 b 13 825 46 1032 13 917 l 13 196 b 139 -11 13 124 36 -11 b 215 38 164 -11 203 13 l 228 0 l 288 0 l 288 508 l 156 508 l 156 382 l 181 382 l 181 183 b 153 122 181 158 178 122 b 129 183 136 122 129 151 l 129 825 b 150 886 129 850 135 886 b 172 825 169 886 172 846 l 172 654 z "},"Ģ":{"ha":342,"x_min":0,"x_max":0,"o":"m 288 654 l 288 825 b 150 1032 288 907 261 1032 b 13 825 46 1032 13 917 l 13 196 b 139 -11 13 124 36 -11 b 215 38 164 -11 203 13 l 228 0 l 288 0 l 288 508 l 156 508 l 156 382 l 181 382 l 181 183 b 153 122 181 158 178 122 b 129 183 136 122 129 151 l 129 825 b 150 886 129 850 135 886 b 172 825 169 886 172 846 l 172 654 z m 192 -75 l 97 -75 l 97 -171 l 128 -171 l 106 -261 l 174 -261 l 192 -171 z "},"Ġ":{"ha":342,"x_min":0,"x_max":0,"o":"m 97 1142 l 206 1142 l 206 1282 l 97 1282 z m 288 654 l 288 825 b 150 1032 288 907 261 1032 b 13 825 46 1032 13 917 l 13 196 b 139 -11 13 124 36 -11 b 215 38 164 -11 203 13 l 228 0 l 288 0 l 288 508 l 156 508 l 156 382 l 181 382 l 181 183 b 153 122 181 158 178 122 b 129 183 136 122 129 151 l 129 825 b 150 886 129 850 135 886 b 172 825 169 886 172 846 l 172 654 z "},"H":{"ha":358,"x_min":0,"x_max":0,"o":"m 181 0 l 296 0 l 296 1021 l 181 1021 l 181 599 l 136 599 l 136 1021 l 21 1021 l 21 0 l 136 0 l 136 444 l 181 444 z "},"Ħ":{"ha":358,"x_min":0,"x_max":0,"o":"m 329 871 l 296 871 l 296 1021 l 181 1021 l 181 871 l 136 871 l 136 1021 l 21 1021 l 21 871 l -11 871 l -11 761 l 21 761 l 21 0 l 136 0 l 136 444 l 181 444 l 181 0 l 296 0 l 296 761 l 329 761 z m 181 599 l 136 599 l 136 761 l 181 761 z "},"Ĥ":{"ha":358,"x_min":0,"x_max":0,"o":"m 104 1236 l 46 1111 l 136 1111 l 160 1165 l 183 1111 l 274 1111 l 217 1236 z m 181 0 l 296 0 l 296 1021 l 181 1021 l 181 599 l 136 599 l 136 1021 l 21 1021 l 21 0 l 136 0 l 136 444 l 181 444 z "},"I":{"ha":199,"x_min":0,"x_max":0,"o":"m 21 0 l 136 0 l 136 1021 l 21 1021 z "},"Ĳ":{"ha":371,"x_min":0,"x_max":0,"o":"m 21 0 l 136 0 l 136 1021 l 21 1021 z m 161 -8 b 328 189 292 -21 328 71 l 328 1021 l 213 1021 l 213 213 b 161 142 213 185 207 132 z "},"Í":{"ha":206,"x_min":0,"x_max":0,"o":"m 65 1236 l 22 1111 l 111 1111 l 176 1236 z m 21 0 l 136 0 l 136 1021 l 21 1021 z "},"Ĭ":{"ha":199,"x_min":0,"x_max":0,"o":"m 128 1289 b 79 1246 128 1289 101 1246 b 33 1290 54 1246 33 1290 l -24 1211 b 79 1144 -6 1175 36 1144 b 182 1211 122 1144 157 1172 z m 21 0 l 136 0 l 136 1021 l 21 1021 z "},"Î":{"ha":193,"x_min":0,"x_max":0,"o":"m 18 1236 l -40 1111 l 50 1111 l 74 1165 l 97 1111 l 188 1111 l 131 1236 z m 18 0 l 132 0 l 132 1021 l 18 1021 z "},"Ï":{"ha":193,"x_min":0,"x_max":0,"o":"m -40 1111 l 63 1111 l 63 1247 l -40 1247 z m 94 1111 l 196 1111 l 196 1247 l 94 1247 z m 18 0 l 133 0 l 133 1021 l 18 1021 z "},"İ":{"ha":199,"x_min":0,"x_max":0,"o":"m 25 1142 l 135 1142 l 135 1282 l 25 1282 z m 21 0 l 136 0 l 136 1021 l 21 1021 z "},"Ì":{"ha":206,"x_min":0,"x_max":0,"o":"m -14 1236 l 53 1111 l 140 1111 l 97 1236 z m 28 0 l 143 0 l 143 1021 l 28 1021 z "},"Ī":{"ha":199,"x_min":0,"x_max":0,"o":"m -14 1153 l 172 1153 l 172 1263 l -14 1263 z m 21 0 l 136 0 l 136 1021 l 21 1021 z "},"Į":{"ha":199,"x_min":0,"x_max":0,"o":"m 136 0 l 136 1021 l 21 1021 l 21 0 l 35 0 b 10 -39 24 -15 15 -29 b 7 -43 10 -40 8 -42 b -22 -143 -7 -69 -22 -110 b 75 -261 -22 -206 13 -261 b 131 -244 93 -261 108 -257 l 136 -140 b 89 -168 115 -156 96 -168 b 60 -115 75 -168 60 -156 b 65 -69 60 -99 61 -83 b 96 0 74 -42 85 -18 z "},"Ĩ":{"ha":199,"x_min":0,"x_max":0,"o":"m -14 1125 b 42 1167 -7 1135 25 1167 b 117 1140 69 1167 85 1140 b 172 1175 142 1140 161 1157 l 172 1290 b 117 1250 164 1276 135 1250 b 43 1274 90 1250 75 1274 b -14 1244 22 1274 -1 1263 z m 21 0 l 136 0 l 136 1021 l 21 1021 z "},"J":{"ha":214,"x_min":0,"x_max":0,"o":"m -6 -8 b 161 189 125 -21 161 71 l 161 1021 l 46 1021 l 46 213 b -6 142 46 185 40 132 z "},"Ĵ":{"ha":214,"x_min":0,"x_max":0,"o":"m 39 1236 l -19 1111 l 71 1111 l 94 1165 l 118 1111 l 208 1111 l 151 1236 z m -10 -8 b 157 189 121 -21 157 71 l 157 1021 l 42 1021 l 42 213 b -10 142 42 185 36 132 z "},"K":{"ha":354,"x_min":0,"x_max":0,"o":"m 21 1021 l 21 0 l 132 0 l 132 486 l 204 0 l 317 0 l 218 647 l 319 1021 l 207 1021 l 132 728 l 132 1021 z "},"Ķ":{"ha":354,"x_min":0,"x_max":0,"o":"m 21 1021 l 21 0 l 132 0 l 132 486 l 204 0 l 317 0 l 218 647 l 319 1021 l 207 1021 l 132 728 l 132 1021 z m 192 -75 l 97 -75 l 97 -171 l 122 -171 l 106 -261 l 174 -261 l 192 -171 z "},"L":{"ha":288,"x_min":0,"x_max":0,"o":"m 21 0 l 256 0 l 256 139 l 136 139 l 136 1021 l 21 1021 z "},"Ĺ":{"ha":288,"x_min":0,"x_max":0,"o":"m 89 1271 l 46 1146 l 135 1146 l 200 1271 z m 21 0 l 256 0 l 256 139 l 136 139 l 136 1021 l 21 1021 z "},"Ľ":{"ha":329,"x_min":0,"x_max":0,"o":"m 294 1178 l 182 1178 l 182 1024 l 211 1024 l 182 843 l 249 843 l 294 1024 z m 21 0 l 256 0 l 256 139 l 136 139 l 136 1021 l 21 1021 z "},"Ļ":{"ha":288,"x_min":0,"x_max":0,"o":"m 21 0 l 256 0 l 256 139 l 136 139 l 136 1021 l 21 1021 z m 192 -75 l 97 -75 l 97 -171 l 122 -171 l 106 -261 l 174 -261 l 192 -171 z "},"Ŀ":{"ha":310,"x_min":0,"x_max":0,"o":"m 21 0 l 256 0 l 256 139 l 136 139 l 136 1021 l 21 1021 z m 171 457 l 283 457 l 283 611 l 171 611 z "},"Ł":{"ha":297,"x_min":0,"x_max":0,"o":"m -1 347 b 31 393 -1 347 29 392 l 31 0 l 265 0 l 265 139 l 146 139 l 146 532 l 144 532 l 194 599 l 194 776 l 146 713 l 146 1021 l 31 1021 l 31 572 l 32 572 l -1 531 z "},"M":{"ha":444,"x_min":0,"x_max":0,"o":"m 233 0 l 272 503 l 272 0 l 382 0 l 382 1021 l 254 1021 l 201 539 l 149 1021 l 21 1021 l 21 0 l 128 0 l 128 503 l 171 0 z "},"N":{"ha":371,"x_min":0,"x_max":0,"o":"m 211 0 l 308 0 l 308 1021 l 201 1021 l 201 539 l 118 1021 l 21 1021 l 21 0 l 128 0 l 128 496 z "},"Ń":{"ha":371,"x_min":0,"x_max":0,"o":"m 131 1271 l 88 1146 l 176 1146 l 242 1271 z m 211 0 l 308 0 l 308 1021 l 201 1021 l 201 539 l 118 1021 l 21 1021 l 21 0 l 128 0 l 128 496 z "},"Ň":{"ha":371,"x_min":0,"x_max":0,"o":"m 222 1146 l 279 1271 l 189 1271 l 165 1217 l 142 1271 l 51 1271 l 110 1146 z m 211 0 l 308 0 l 308 1021 l 201 1021 l 201 539 l 118 1021 l 21 1021 l 21 0 l 128 0 l 128 496 z "},"Ņ":{"ha":371,"x_min":0,"x_max":0,"o":"m 211 0 l 308 0 l 308 1021 l 201 1021 l 201 539 l 118 1021 l 21 1021 l 21 0 l 128 0 l 128 496 z m 192 -75 l 97 -75 l 97 -171 l 122 -171 l 106 -261 l 174 -261 l 192 -171 z "},"Ŋ":{"ha":371,"x_min":0,"x_max":0,"o":"m 201 1021 l 201 536 l 119 1021 l 21 1021 l 21 0 l 128 0 l 128 489 l 203 0 b 168 -22 196 -17 185 -28 l 168 -167 b 283 -117 228 -175 265 -153 b 308 0 299 -85 307 -43 l 308 1021 z "},"Ñ":{"ha":371,"x_min":0,"x_max":0,"o":"m 71 1088 b 126 1129 78 1097 110 1129 b 201 1103 154 1129 169 1103 b 257 1138 226 1103 246 1119 l 257 1253 b 201 1213 249 1239 219 1213 b 128 1236 175 1213 160 1236 b 71 1207 107 1236 83 1225 z m 211 0 l 308 0 l 308 1021 l 201 1021 l 201 539 l 118 1021 l 21 1021 l 21 0 l 128 0 l 128 496 z "},"O":{"ha":336,"x_min":0,"x_max":0,"o":"m 292 825 b 153 1032 292 908 264 1032 b 13 825 49 1032 13 931 l 13 196 b 153 -11 13 99 44 -11 b 292 196 258 -11 292 90 z m 176 196 b 154 135 176 164 168 135 b 131 196 142 135 131 158 l 131 825 b 154 886 131 858 139 886 b 176 825 169 886 176 857 z "},"Ó":{"ha":336,"x_min":0,"x_max":0,"o":"m 147 1236 l 103 1111 l 192 1111 l 258 1236 z m 292 825 b 153 1032 292 908 264 1032 b 13 825 49 1032 13 931 l 13 196 b 153 -11 13 99 44 -11 b 292 196 258 -11 292 90 z m 176 196 b 154 135 176 164 168 135 b 131 196 142 135 131 158 l 131 825 b 154 886 131 858 139 886 b 176 825 169 886 176 857 z "},"Ŏ":{"ha":336,"x_min":0,"x_max":0,"o":"m 197 1289 b 149 1246 197 1289 171 1246 b 103 1290 124 1246 103 1290 l 46 1211 b 149 1144 64 1175 106 1144 b 251 1211 192 1144 226 1172 z m 292 825 b 153 1032 292 908 264 1032 b 13 825 49 1032 13 931 l 13 196 b 153 -11 13 99 44 -11 b 292 196 258 -11 292 90 z m 176 196 b 154 135 176 164 168 135 b 131 196 142 135 131 158 l 131 825 b 154 886 131 858 139 886 b 176 825 169 886 176 857 z "},"Ô":{"ha":336,"x_min":0,"x_max":0,"o":"m 96 1236 l 38 1111 l 128 1111 l 151 1165 l 175 1111 l 265 1111 l 208 1236 z m 292 825 b 153 1032 292 908 264 1032 b 13 825 49 1032 13 931 l 13 196 b 153 -11 13 99 44 -11 b 292 196 258 -11 292 90 z m 176 196 b 154 135 176 164 168 135 b 131 196 142 135 131 158 l 131 825 b 154 886 131 858 139 886 b 176 825 169 886 176 857 z "},"Ö":{"ha":336,"x_min":0,"x_max":0,"o":"m 35 1111 l 138 1111 l 138 1247 l 35 1247 z m 169 1111 l 271 1111 l 271 1247 l 169 1247 z m 292 825 b 153 1032 292 908 264 1032 b 13 825 49 1032 13 931 l 13 196 b 153 -11 13 99 44 -11 b 292 196 258 -11 292 90 z m 176 196 b 154 135 176 164 168 135 b 131 196 142 135 131 158 l 131 825 b 154 886 131 858 139 886 b 176 825 169 886 176 857 z "},"Ò":{"ha":336,"x_min":0,"x_max":0,"o":"m 38 1236 l 104 1111 l 193 1111 l 149 1236 z m 292 825 b 153 1032 292 908 264 1032 b 13 825 49 1032 13 931 l 13 196 b 153 -11 13 99 44 -11 b 292 196 258 -11 292 90 z m 176 196 b 154 135 176 164 168 135 b 131 196 142 135 131 158 l 131 825 b 154 886 131 858 139 886 b 176 825 169 886 176 857 z "},"Ő":{"ha":336,"x_min":0,"x_max":0,"o":"m 53 1271 l 10 1146 l 97 1146 l 164 1271 z m 204 1271 l 160 1146 l 249 1146 l 315 1271 z m 292 825 b 153 1032 292 908 264 1032 b 13 825 49 1032 13 931 l 13 196 b 153 -11 13 99 44 -11 b 292 196 258 -11 292 90 z m 176 196 b 154 135 176 164 168 135 b 131 196 142 135 131 158 l 131 825 b 154 886 131 858 139 886 b 176 825 169 886 176 857 z "},"Ō":{"ha":336,"x_min":0,"x_max":0,"o":"m 56 1153 l 242 1153 l 242 1263 l 56 1263 z m 292 825 b 153 1032 292 908 264 1032 b 13 825 49 1032 13 931 l 13 196 b 153 -11 13 99 44 -11 b 292 196 258 -11 292 90 z m 176 196 b 154 135 176 164 168 135 b 131 196 142 135 131 158 l 131 825 b 154 886 131 858 139 886 b 176 825 169 886 176 857 z "},"Ø":{"ha":336,"x_min":0,"x_max":0,"o":"m 296 825 b 274 947 296 863 290 908 l 290 1035 l 226 1035 l 222 1014 b 157 1032 204 1025 183 1032 b 17 825 53 1032 17 931 l 17 196 b 38 74 17 154 22 110 l 21 -14 l 88 -14 l 92 6 b 157 -11 110 -4 131 -11 b 296 196 263 -11 296 90 z m 181 800 l 135 567 l 135 825 b 158 886 135 858 143 886 b 181 825 174 886 181 857 z m 135 229 l 181 467 l 181 196 b 158 135 181 164 172 135 b 135 196 146 135 135 158 z "},"Õ":{"ha":336,"x_min":0,"x_max":0,"o":"m 54 1088 b 110 1129 61 1097 93 1129 b 185 1103 138 1129 153 1103 b 240 1138 210 1103 229 1119 l 240 1253 b 185 1213 232 1239 203 1213 b 111 1236 158 1213 143 1236 b 54 1207 90 1236 67 1225 z m 292 825 b 153 1032 292 908 264 1032 b 13 825 49 1032 13 931 l 13 196 b 153 -11 13 99 44 -11 b 292 196 258 -11 292 90 z m 176 196 b 154 135 176 164 168 135 b 131 196 142 135 131 158 l 131 825 b 154 886 131 858 139 886 b 176 825 169 886 176 857 z "},"Œ":{"ha":442,"x_min":0,"x_max":0,"o":"m 410 0 l 410 154 l 294 154 l 294 435 l 378 435 l 378 599 l 294 599 l 294 867 l 410 867 l 410 1021 l 154 1021 b 15 811 51 1021 15 932 l 15 210 b 154 0 15 92 49 6 z m 179 210 b 154 135 179 199 175 135 b 131 210 140 135 131 172 l 131 811 b 154 886 131 833 140 886 b 179 811 172 886 179 826 z "},"P":{"ha":335,"x_min":0,"x_max":0,"o":"m 21 0 l 136 0 l 136 408 b 246 467 178 410 219 425 b 294 715 276 515 294 600 b 246 960 294 831 276 911 b 138 1021 215 1007 183 1021 l 21 1021 z m 136 871 b 172 856 149 871 165 871 b 183 710 183 831 183 767 b 172 578 183 653 183 600 b 136 561 165 564 147 561 z "},"Þ":{"ha":336,"x_min":0,"x_max":0,"o":"m 21 0 l 136 0 l 136 244 b 243 311 176 249 215 271 b 294 551 274 360 294 436 b 243 793 294 667 274 744 b 136 857 215 835 176 854 l 136 1021 l 21 1021 z m 136 704 b 168 672 149 701 160 693 b 181 546 179 647 181 603 b 168 425 181 489 179 447 b 136 397 161 406 149 400 z "},"Q":{"ha":339,"x_min":0,"x_max":0,"o":"m 286 825 b 147 1032 286 908 258 1032 b 13 825 43 1032 13 931 l 13 196 b 138 -10 13 107 36 -3 b 143 -11 139 -10 140 -11 l 154 -11 l 171 -8 b 183 -6 175 -8 179 -7 l 185 -6 b 297 -78 200 -44 232 -78 l 297 47 b 265 72 283 51 274 60 l 265 74 b 265 75 267 72 265 74 b 286 196 278 111 286 154 z m 168 196 b 149 135 168 168 163 135 b 131 196 136 135 131 164 l 131 825 b 149 886 131 858 133 886 b 168 825 164 886 168 857 z "},"R":{"ha":343,"x_min":0,"x_max":0,"o":"m 308 0 l 238 494 b 290 726 274 538 290 629 b 138 1021 290 919 246 1021 l 21 1021 l 21 0 l 136 0 l 136 444 l 196 0 z m 136 872 b 168 858 143 872 158 874 b 181 721 179 842 181 796 b 167 578 181 647 179 596 b 136 563 160 567 146 563 z "},"Ŕ":{"ha":343,"x_min":0,"x_max":0,"o":"m 117 1271 l 74 1146 l 163 1146 l 228 1271 z m 308 0 l 238 494 b 290 726 274 538 290 629 b 138 1021 290 919 246 1021 l 21 1021 l 21 0 l 136 0 l 136 444 l 196 0 z m 136 872 b 168 858 143 872 158 874 b 181 721 179 842 181 796 b 167 578 181 647 179 596 b 136 563 160 567 146 563 z "},"Ř":{"ha":343,"x_min":0,"x_max":0,"o":"m 208 1146 l 265 1271 l 175 1271 l 151 1217 l 128 1271 l 38 1271 l 96 1146 z m 308 0 l 238 494 b 290 726 274 538 290 629 b 138 1021 290 919 246 1021 l 21 1021 l 21 0 l 136 0 l 136 444 l 196 0 z m 136 872 b 168 858 143 872 158 874 b 181 721 179 842 181 796 b 167 578 181 647 179 596 b 136 563 160 567 146 563 z "},"Ŗ":{"ha":343,"x_min":0,"x_max":0,"o":"m 308 0 l 238 494 b 290 726 274 538 290 629 b 138 1021 290 919 246 1021 l 21 1021 l 21 0 l 136 0 l 136 444 l 196 0 z m 136 872 b 168 858 143 872 158 874 b 181 721 179 842 181 796 b 167 578 181 647 179 596 b 136 563 160 567 146 563 z m 192 -75 l 97 -75 l 97 -171 l 122 -171 l 106 -261 l 174 -261 l 192 -171 z "},"S":{"ha":328,"x_min":0,"x_max":0,"o":"m 283 763 b 144 1032 283 847 278 1035 b 15 793 33 1029 15 882 b 78 531 15 714 47 613 b 169 225 138 388 169 311 b 146 126 169 160 167 126 b 115 301 115 126 115 269 l 3 285 b 146 -11 3 192 0 -11 b 283 232 265 -11 283 135 b 196 553 283 335 246 432 b 128 793 156 654 128 726 b 147 894 128 853 131 894 b 169 746 169 894 169 782 z "},"Ś":{"ha":328,"x_min":0,"x_max":0,"o":"m 110 1271 l 65 1146 l 154 1146 l 221 1271 z m 283 763 b 144 1032 283 847 278 1035 b 15 793 33 1029 15 882 b 78 531 15 714 47 613 b 169 225 138 388 169 311 b 146 126 169 160 167 126 b 115 301 115 126 115 269 l 3 285 b 146 -11 3 192 0 -11 b 283 232 265 -11 283 135 b 196 553 283 335 246 432 b 128 793 156 654 128 726 b 147 894 128 853 131 894 b 169 746 169 894 169 782 z "},"Š":{"ha":328,"x_min":0,"x_max":0,"o":"m 200 1111 l 257 1236 l 167 1236 l 143 1182 l 119 1236 l 29 1236 l 88 1111 z m 283 763 b 144 1032 283 847 278 1035 b 15 793 33 1029 15 882 b 78 531 15 714 47 613 b 169 225 138 388 169 311 b 146 126 169 160 167 126 b 115 301 115 126 115 269 l 3 285 b 146 -11 3 192 0 -11 b 283 232 265 -11 283 135 b 196 553 283 335 246 432 b 128 793 156 654 128 726 b 147 894 128 853 131 894 b 169 746 169 894 169 782 z "},"Ş":{"ha":328,"x_min":0,"x_max":0,"o":"m 283 763 b 144 1032 283 847 278 1035 b 15 793 33 1029 15 882 b 78 531 15 714 47 613 b 169 225 138 388 169 311 b 146 126 169 160 167 126 b 115 301 115 126 115 269 l 3 285 b 146 -11 3 192 0 -11 b 283 232 265 -11 283 135 b 196 553 283 335 246 432 b 128 793 156 654 128 726 b 147 894 128 853 131 894 b 169 746 169 894 169 782 z m 192 -75 l 97 -75 l 97 -171 l 122 -171 l 106 -261 l 174 -261 l 192 -171 z "},"Ŝ":{"ha":328,"x_min":0,"x_max":0,"o":"m 89 1236 l 31 1111 l 121 1111 l 144 1165 l 168 1111 l 258 1111 l 201 1236 z m 283 763 b 144 1032 283 847 278 1035 b 15 793 33 1029 15 882 b 78 531 15 714 47 613 b 169 225 138 388 169 311 b 146 126 169 160 167 126 b 115 301 115 126 115 269 l 3 285 b 146 -11 3 192 0 -11 b 283 232 265 -11 283 135 b 196 553 283 335 246 432 b 128 793 156 654 128 726 b 147 894 128 853 131 894 b 169 746 169 894 169 782 z "},"T":{"ha":306,"x_min":0,"x_max":0,"o":"m 74 867 l 74 0 l 189 0 l 189 867 l 274 867 l 274 1021 l -11 1021 l -11 867 z "},"Ŧ":{"ha":306,"x_min":0,"x_max":0,"o":"m 274 867 l 274 1021 l -11 1021 l -11 867 l 74 867 l 74 764 l 42 764 l 42 654 l 74 654 l 74 0 l 189 0 l 189 654 l 228 654 l 228 764 l 189 764 l 189 867 z "},"Ť":{"ha":306,"x_min":0,"x_max":0,"o":"m 190 1146 l 247 1271 l 157 1271 l 133 1217 l 110 1271 l 19 1271 l 78 1146 z m 74 867 l 74 0 l 189 0 l 189 867 l 274 867 l 274 1021 l -11 1021 l -11 867 z "},"Ț":{"ha":306,"x_min":0,"x_max":0,"o":"m 74 867 l 74 0 l 189 0 l 189 867 l 274 867 l 274 1021 l -11 1021 l -11 867 z m 192 -75 l 97 -75 l 97 -171 l 122 -171 l 106 -261 l 174 -261 l 192 -171 z "},"U":{"ha":347,"x_min":0,"x_max":0,"o":"m 169 1021 l 169 196 b 149 135 169 163 165 135 b 126 196 131 135 126 157 l 126 1021 l 11 1021 l 11 196 b 149 -11 11 92 38 -11 b 285 196 253 -11 285 81 l 285 1021 z "},"Ú":{"ha":347,"x_min":0,"x_max":0,"o":"m 156 1236 l 113 1111 l 201 1111 l 267 1236 z m 169 1021 l 169 196 b 149 135 169 163 165 135 b 126 196 131 135 126 157 l 126 1021 l 11 1021 l 11 196 b 149 -11 11 92 38 -11 b 285 196 253 -11 285 81 l 285 1021 z "},"Ŭ":{"ha":347,"x_min":0,"x_max":0,"o":"m 201 1289 b 153 1246 201 1289 175 1246 b 107 1290 128 1246 107 1290 l 50 1211 b 153 1144 68 1175 110 1144 b 256 1211 196 1144 231 1172 z m 169 1021 l 169 196 b 149 135 169 163 165 135 b 126 196 131 135 126 157 l 126 1021 l 11 1021 l 11 196 b 149 -11 11 92 38 -11 b 285 196 253 -11 285 81 l 285 1021 z "},"Û":{"ha":347,"x_min":0,"x_max":0,"o":"m 89 1236 l 31 1111 l 121 1111 l 144 1165 l 168 1111 l 258 1111 l 201 1236 z m 169 1021 l 169 196 b 149 135 169 163 165 135 b 126 196 131 135 126 157 l 126 1021 l 11 1021 l 11 196 b 149 -11 11 92 38 -11 b 285 196 253 -11 285 81 l 285 1021 z "},"Ü":{"ha":347,"x_min":0,"x_max":0,"o":"m 29 1111 l 132 1111 l 132 1247 l 29 1247 z m 164 1111 l 265 1111 l 265 1247 l 164 1247 z m 169 1021 l 169 196 b 149 135 169 163 165 135 b 126 196 131 135 126 157 l 126 1021 l 11 1021 l 11 196 b 149 -11 11 92 38 -11 b 285 196 253 -11 285 81 l 285 1021 z "},"Ù":{"ha":347,"x_min":0,"x_max":0,"o":"m 49 1236 l 114 1111 l 203 1111 l 160 1236 z m 169 1021 l 169 196 b 149 135 169 163 165 135 b 126 196 131 135 126 157 l 126 1021 l 11 1021 l 11 196 b 149 -11 11 92 38 -11 b 285 196 253 -11 285 81 l 285 1021 z "},"Ű":{"ha":347,"x_min":0,"x_max":0,"o":"m 57 1271 l 14 1146 l 103 1146 l 168 1271 z m 208 1271 l 165 1146 l 254 1146 l 319 1271 z m 169 1021 l 169 196 b 149 135 169 163 165 135 b 126 196 131 135 126 157 l 126 1021 l 11 1021 l 11 196 b 149 -11 11 92 38 -11 b 285 196 253 -11 285 81 l 285 1021 z "},"Ū":{"ha":347,"x_min":0,"x_max":0,"o":"m 60 1153 l 247 1153 l 247 1263 l 60 1263 z m 169 1021 l 169 196 b 149 135 169 163 165 135 b 126 196 131 135 126 157 l 126 1021 l 11 1021 l 11 196 b 149 -11 11 92 38 -11 b 285 196 253 -11 285 81 l 285 1021 z "},"Ų":{"ha":347,"x_min":0,"x_max":0,"o":"m 169 1021 l 169 199 b 146 135 169 132 146 135 b 126 196 132 139 126 161 l 126 1021 l 11 1021 l 11 196 b 147 -11 11 92 38 -10 l 153 -11 b 178 -10 163 -11 171 -11 b 157 -43 168 -24 160 -36 b 128 -143 143 -69 128 -110 b 225 -261 128 -206 163 -261 b 281 -244 243 -261 258 -257 l 286 -140 b 239 -168 265 -156 246 -168 b 210 -115 225 -168 210 -156 b 215 -69 210 -99 211 -83 b 244 0 225 -36 233 -17 l 204 0 b 285 196 264 28 285 104 l 285 1021 z "},"Ů":{"ha":347,"x_min":0,"x_max":0,"o":"m 79 1225 b 154 1128 79 1168 113 1128 b 228 1225 196 1128 228 1168 b 154 1322 228 1282 196 1322 b 79 1225 113 1322 79 1282 z m 136 1225 b 154 1274 136 1251 144 1274 b 172 1225 163 1274 172 1251 b 154 1176 172 1199 163 1176 b 136 1225 144 1176 136 1199 z m 169 1021 l 169 196 b 149 135 169 163 165 135 b 126 196 131 135 126 157 l 126 1021 l 11 1021 l 11 196 b 149 -11 11 92 38 -11 b 285 196 253 -11 285 81 l 285 1021 z "},"Ũ":{"ha":347,"x_min":0,"x_max":0,"o":"m 60 1126 b 115 1168 67 1136 99 1168 b 190 1142 143 1168 158 1142 b 246 1176 215 1142 235 1158 l 246 1292 b 190 1251 238 1278 208 1251 b 117 1275 164 1251 149 1275 b 60 1246 96 1275 72 1264 z m 169 1021 l 169 196 b 149 135 169 163 165 135 b 126 196 131 135 126 157 l 126 1021 l 11 1021 l 11 196 b 149 -11 11 92 38 -11 b 285 196 253 -11 285 81 l 285 1021 z "},"V":{"ha":333,"x_min":0,"x_max":0,"o":"m -6 1021 l 89 0 l 203 0 l 297 1021 l 185 1021 l 146 499 l 107 1021 z "},"W":{"ha":464,"x_min":0,"x_max":0,"o":"m 250 0 l 349 0 l 424 1021 l 315 1021 b 288 543 307 871 296 693 l 253 1021 l 168 1021 l 135 542 l 106 1021 l -3 1021 l 75 0 l 172 0 l 211 489 z "},"Ŵ":{"ha":464,"x_min":0,"x_max":0,"o":"m 151 1236 l 93 1111 l 183 1111 l 207 1165 l 231 1111 l 321 1111 l 264 1236 z m 249 0 l 347 0 l 422 1021 l 314 1021 b 286 543 306 871 294 693 l 251 1021 l 167 1021 l 133 542 l 104 1021 l -4 1021 l 74 0 l 171 0 l 210 489 z "},"X":{"ha":342,"x_min":0,"x_max":0,"o":"m 193 0 l 306 0 l 239 361 b 207 536 228 419 218 479 l 304 1021 l 190 1021 b 150 774 178 939 163 856 l 110 1021 l -4 1021 l 44 778 b 93 536 58 701 78 613 l -6 0 l 107 0 l 150 282 z "},"Y":{"ha":326,"x_min":0,"x_max":0,"o":"m 111 1021 l -3 1021 l 93 435 l 93 0 l 208 0 l 208 435 l 304 1021 l 190 1021 b 150 724 178 921 163 822 z "},"Ý":{"ha":328,"x_min":0,"x_max":0,"o":"m 135 1236 l 90 1111 l 179 1111 l 246 1236 z m 111 1021 l -3 1021 l 93 435 l 93 0 l 208 0 l 208 435 l 304 1021 l 190 1021 b 150 724 178 921 163 822 z "},"Ŷ":{"ha":326,"x_min":0,"x_max":0,"o":"m 93 1236 l 35 1111 l 125 1111 l 149 1165 l 172 1111 l 263 1111 l 206 1236 z m 111 1021 l -3 1021 l 93 435 l 93 0 l 208 0 l 208 435 l 304 1021 l 190 1021 b 150 724 178 921 163 822 z "},"Ÿ":{"ha":328,"x_min":0,"x_max":0,"o":"m 32 1111 l 135 1111 l 135 1247 l 32 1247 z m 167 1111 l 268 1111 l 268 1247 l 167 1247 z m 111 1021 l -3 1021 l 93 435 l 93 0 l 208 0 l 208 435 l 304 1021 l 190 1021 b 150 724 178 921 163 822 z "},"Z":{"ha":297,"x_min":0,"x_max":0,"o":"m -4 0 l 260 0 l 260 149 l 115 149 l 260 872 l 260 1021 l 15 1021 l 15 872 l 136 872 l -4 161 z "},"Ź":{"ha":297,"x_min":0,"x_max":0,"o":"m 94 1271 l 51 1146 l 139 1146 l 206 1271 z m -4 0 l 260 0 l 260 149 l 115 149 l 260 872 l 260 1021 l 15 1021 l 15 872 l 136 872 l -4 161 z "},"Ž":{"ha":297,"x_min":0,"x_max":0,"o":"m 194 1111 l 251 1236 l 161 1236 l 138 1182 l 114 1236 l 24 1236 l 82 1111 z m -4 0 l 260 0 l 260 149 l 115 149 l 260 872 l 260 1021 l 15 1021 l 15 872 l 136 872 l -4 161 z "},"Ż":{"ha":297,"x_min":0,"x_max":0,"o":"m 82 1142 l 192 1142 l 192 1282 l 82 1282 z m -4 0 l 260 0 l 260 149 l 115 149 l 260 872 l 260 1021 l 15 1021 l 15 872 l 136 872 l -4 161 z "},"a":{"ha":319,"x_min":0,"x_max":0,"o":"m 157 504 b 113 450 153 489 131 465 b 7 176 35 383 7 282 b 86 -11 7 129 11 -11 b 157 46 119 -11 146 17 b 174 0 158 38 169 7 l 267 0 b 260 132 263 33 260 64 l 260 599 b 143 771 263 669 228 771 b 14 582 51 771 14 667 l 14 536 l 119 536 l 119 586 b 139 650 119 606 125 650 b 157 586 151 650 157 610 z m 156 172 b 126 121 156 146 144 121 b 107 178 107 121 107 174 b 156 349 107 239 131 317 z "},"á":{"ha":319,"x_min":0,"x_max":0,"o":"m 126 1010 l 82 885 l 171 885 l 238 1010 z m 157 504 b 113 450 153 489 131 465 b 7 176 35 383 7 282 b 86 -11 7 129 11 -11 b 157 46 119 -11 146 17 b 174 0 158 38 169 7 l 267 0 b 260 132 263 33 260 64 l 260 599 b 143 771 263 669 228 771 b 14 582 51 771 14 667 l 14 536 l 119 536 l 119 586 b 139 650 119 606 125 650 b 157 586 151 650 157 610 z m 156 172 b 126 121 156 146 144 121 b 107 178 107 121 107 174 b 156 349 107 239 131 317 z "},"ă":{"ha":319,"x_min":0,"x_max":0,"o":"m 190 1026 b 142 983 190 1026 164 983 b 96 1028 117 983 96 1028 l 39 949 b 142 882 57 913 99 882 b 244 949 185 882 219 910 z m 157 504 b 113 450 153 489 131 465 b 7 176 35 383 7 282 b 86 -11 7 129 11 -11 b 157 46 119 -11 146 17 b 174 0 158 38 169 7 l 267 0 b 260 132 263 33 260 64 l 260 599 b 143 771 263 669 228 771 b 14 582 51 771 14 667 l 14 536 l 119 536 l 119 586 b 139 650 119 606 125 650 b 157 586 151 650 157 610 z m 156 172 b 126 121 156 146 144 121 b 107 178 107 121 107 174 b 156 349 107 239 131 317 z "},"â":{"ha":319,"x_min":0,"x_max":0,"o":"m 83 1010 l 25 885 l 115 885 l 139 939 l 163 885 l 253 885 l 196 1010 z m 157 504 b 113 450 153 489 131 465 b 7 176 35 383 7 282 b 86 -11 7 129 11 -11 b 157 46 119 -11 146 17 b 174 0 158 38 169 7 l 267 0 b 260 132 263 33 260 64 l 260 599 b 143 771 263 669 228 771 b 14 582 51 771 14 667 l 14 536 l 119 536 l 119 586 b 139 650 119 606 125 650 b 157 586 151 650 157 610 z m 156 172 b 126 121 156 146 144 121 b 107 178 107 121 107 174 b 156 349 107 239 131 317 z "},"ä":{"ha":319,"x_min":0,"x_max":0,"o":"m 24 885 l 126 885 l 126 1021 l 24 1021 z m 158 885 l 260 885 l 260 1021 l 158 1021 z m 157 504 b 113 450 153 489 131 465 b 7 176 35 383 7 282 b 86 -11 7 129 11 -11 b 157 46 119 -11 146 17 b 174 0 158 38 169 7 l 267 0 b 260 132 263 33 260 64 l 260 599 b 143 771 263 669 228 771 b 14 582 51 771 14 667 l 14 536 l 119 536 l 119 586 b 139 650 119 606 125 650 b 157 586 151 650 157 610 z m 156 172 b 126 121 156 146 144 121 b 107 178 107 121 107 174 b 156 349 107 239 131 317 z "},"à":{"ha":319,"x_min":0,"x_max":0,"o":"m 44 1010 l 110 885 l 199 885 l 156 1010 z m 157 504 b 113 450 153 489 131 465 b 7 176 35 383 7 282 b 86 -11 7 129 11 -11 b 157 46 119 -11 146 17 b 174 0 158 38 169 7 l 267 0 b 260 132 263 33 260 64 l 260 599 b 143 771 263 669 228 771 b 14 582 51 771 14 667 l 14 536 l 119 536 l 119 586 b 139 650 119 606 125 650 b 157 586 151 650 157 610 z m 156 172 b 126 121 156 146 144 121 b 107 178 107 121 107 174 b 156 349 107 239 131 317 z "},"ā":{"ha":319,"x_min":0,"x_max":0,"o":"m 47 892 l 233 892 l 233 1001 l 47 1001 z m 157 504 b 113 450 153 489 131 465 b 7 176 35 383 7 282 b 86 -11 7 129 11 -11 b 157 46 119 -11 146 17 b 174 0 158 38 169 7 l 267 0 b 260 132 263 33 260 64 l 260 599 b 143 771 263 669 228 771 b 14 582 51 771 14 667 l 14 536 l 119 536 l 119 586 b 139 650 119 606 125 650 b 157 586 151 650 157 610 z m 156 172 b 126 121 156 146 144 121 b 107 178 107 121 107 174 b 156 349 107 239 131 317 z "},"ą":{"ha":319,"x_min":0,"x_max":0,"o":"m 157 504 b 113 450 153 489 131 465 b 7 176 35 383 7 282 b 86 -11 7 129 11 -11 b 157 46 119 -11 146 17 b 174 0 158 38 169 7 b 133 -43 160 -3 140 -32 b 106 -143 118 -71 106 -107 b 203 -261 106 -206 140 -261 b 257 -244 219 -261 233 -258 l 264 -140 b 217 -168 243 -156 224 -168 b 188 -115 203 -168 188 -156 b 193 -69 188 -99 189 -83 b 224 0 201 -42 213 -18 l 267 0 b 260 132 263 33 260 64 l 260 599 b 143 771 263 669 228 771 b 14 582 51 771 14 667 l 14 536 l 119 536 l 119 586 b 139 650 119 606 125 650 b 157 586 151 650 157 610 z m 156 172 b 126 121 156 146 144 121 b 107 178 107 121 107 174 b 156 349 107 239 131 317 z "},"å":{"ha":319,"x_min":0,"x_max":0,"o":"m 65 964 b 140 867 65 907 99 867 b 214 964 181 867 214 907 b 140 1061 214 1021 181 1061 b 65 964 99 1061 65 1021 z m 119 964 b 140 1007 119 990 131 1007 b 161 964 149 1007 161 990 b 140 919 161 938 149 919 b 119 964 131 919 119 938 z m 157 504 b 113 450 153 489 131 465 b 7 176 35 383 7 282 b 86 -11 7 129 11 -11 b 157 46 119 -11 146 17 b 174 0 158 38 169 7 l 267 0 b 260 132 263 33 260 64 l 260 599 b 143 771 263 669 228 771 b 14 582 51 771 14 667 l 14 536 l 119 536 l 119 586 b 139 650 119 606 125 650 b 157 586 151 650 157 610 z m 156 172 b 126 121 156 146 144 121 b 107 178 107 121 107 174 b 156 349 107 239 131 317 z "},"ã":{"ha":319,"x_min":0,"x_max":0,"o":"m 44 860 b 100 901 51 869 83 901 b 175 875 128 901 143 875 b 231 910 200 875 219 892 l 231 1025 b 175 985 222 1011 193 985 b 101 1008 149 985 133 1008 b 44 979 81 1008 57 997 z m 157 504 b 113 450 153 489 131 465 b 7 176 35 383 7 282 b 86 -11 7 129 11 -11 b 157 46 119 -11 146 17 b 174 0 158 38 169 7 l 267 0 b 260 132 263 33 260 64 l 260 599 b 143 771 263 669 228 771 b 14 582 51 771 14 667 l 14 536 l 119 536 l 119 586 b 139 650 119 606 125 650 b 157 586 151 650 157 610 z m 156 172 b 126 121 156 146 144 121 b 107 178 107 121 107 174 b 156 349 107 239 131 317 z "},"æ":{"ha":463,"x_min":0,"x_max":0,"o":"m 317 272 l 317 189 b 290 113 317 163 313 113 b 269 189 275 113 269 158 l 269 354 l 421 354 l 421 581 b 290 771 421 668 407 771 b 215 740 258 771 235 758 b 146 771 197 758 175 771 b 17 582 54 771 17 667 l 17 536 l 122 536 l 122 586 b 142 650 122 606 128 650 b 160 586 154 650 160 610 l 160 504 b 115 450 156 489 133 465 b 10 176 38 383 10 282 b 114 -11 10 129 22 -11 b 201 26 147 -11 183 3 b 283 -11 219 3 246 -11 b 421 176 390 -11 421 78 l 421 272 z m 269 571 b 289 649 269 593 271 649 b 317 571 313 649 317 608 l 317 464 l 269 464 z m 158 172 b 129 121 158 146 147 121 b 110 178 110 121 110 174 b 158 349 110 239 133 317 z "},"b":{"ha":321,"x_min":0,"x_max":0,"o":"m 21 0 l 131 0 l 131 42 b 210 -11 138 25 174 -11 b 272 138 278 -11 271 83 l 272 622 b 188 771 272 685 258 771 b 131 728 168 771 135 746 l 131 1021 l 21 1021 z m 131 599 b 150 649 131 621 136 649 b 169 599 163 649 169 625 l 169 174 b 150 121 169 146 165 121 b 131 174 136 121 131 147 z "},"c":{"ha":304,"x_min":0,"x_max":0,"o":"m 124 593 b 146 649 124 621 133 649 b 167 593 158 649 167 639 l 167 493 l 272 493 l 272 567 b 143 771 272 665 268 771 b 14 560 38 771 15 647 l 14 200 b 140 -11 14 121 32 -11 b 272 193 263 -11 271 86 l 272 281 l 167 281 l 167 175 b 144 115 167 129 158 115 b 124 175 131 115 124 147 z "},"ć":{"ha":304,"x_min":0,"x_max":0,"o":"m 97 1010 l 54 885 l 143 885 l 208 1010 z m 124 593 b 146 649 124 621 133 649 b 167 593 158 649 167 639 l 167 493 l 272 493 l 272 567 b 143 771 272 665 268 771 b 14 560 38 771 15 647 l 14 200 b 140 -11 14 121 32 -11 b 272 193 263 -11 271 86 l 272 281 l 167 281 l 167 175 b 144 115 167 129 158 115 b 124 175 131 115 124 147 z "},"č":{"ha":304,"x_min":0,"x_max":0,"o":"m 192 885 l 249 1010 l 158 1010 l 135 956 l 111 1010 l 21 1010 l 79 885 z m 124 593 b 146 649 124 621 133 649 b 167 593 158 649 167 639 l 167 493 l 272 493 l 272 567 b 143 771 272 665 268 771 b 14 560 38 771 15 647 l 14 200 b 140 -11 14 121 32 -11 b 272 193 263 -11 271 86 l 272 281 l 167 281 l 167 175 b 144 115 167 129 158 115 b 124 175 131 115 124 147 z "},"ç":{"ha":304,"x_min":0,"x_max":0,"o":"m 124 593 b 146 649 124 621 133 649 b 167 593 158 649 167 639 l 167 493 l 272 493 l 272 567 b 143 771 272 665 268 771 b 14 560 38 771 15 647 l 14 200 b 140 -11 14 121 32 -11 b 272 193 263 -11 271 86 l 272 281 l 167 281 l 167 175 b 144 115 167 129 158 115 b 124 175 131 115 124 147 z m 179 -75 l 85 -75 l 85 -171 l 110 -171 l 93 -261 l 161 -261 l 179 -171 z "},"ĉ":{"ha":304,"x_min":0,"x_max":0,"o":"m 88 1010 l 29 885 l 119 885 l 143 939 l 167 885 l 257 885 l 200 1010 z m 124 593 b 146 649 124 621 133 649 b 167 593 158 649 167 639 l 167 493 l 272 493 l 272 567 b 143 771 272 665 268 771 b 14 560 38 771 15 647 l 14 200 b 140 -11 14 121 32 -11 b 272 193 263 -11 271 86 l 272 281 l 167 281 l 167 175 b 144 115 167 129 158 115 b 124 175 131 115 124 147 z "},"ċ":{"ha":304,"x_min":0,"x_max":0,"o":"m 92 881 l 200 881 l 200 1021 l 92 1021 z m 124 593 b 146 649 124 621 133 649 b 167 593 158 649 167 639 l 167 493 l 272 493 l 272 567 b 143 771 272 665 268 771 b 14 560 38 771 15 647 l 14 200 b 140 -11 14 121 32 -11 b 272 193 263 -11 271 86 l 272 281 l 167 281 l 167 175 b 144 115 167 129 158 115 b 124 175 131 115 124 147 z "},"d":{"ha":321,"x_min":0,"x_max":0,"o":"m 281 1021 l 171 1021 l 171 728 b 114 771 167 746 133 771 b 29 622 43 771 29 685 l 29 138 b 92 -11 31 83 24 -11 b 171 42 128 -11 164 25 l 171 0 l 281 0 z m 171 174 b 151 121 171 147 165 121 b 132 174 136 121 132 146 l 132 599 b 151 649 132 625 139 649 b 171 599 165 649 171 621 z "},"ð":{"ha":315,"x_min":0,"x_max":0,"o":"m 99 954 b 121 913 99 953 114 932 l 76 850 l 107 790 l 136 833 b 150 747 140 811 147 776 b 101 771 135 761 117 771 b 11 582 19 771 13 650 l 11 189 b 139 -11 11 104 38 -11 b 267 185 235 -11 267 106 l 267 629 b 208 932 267 764 233 865 l 247 992 l 217 1053 l 179 997 b 157 1043 179 997 161 1032 z m 163 175 b 139 113 163 153 151 113 b 115 175 122 113 115 144 l 115 585 b 139 649 115 596 124 649 b 163 585 154 649 163 619 z "},"ď":{"ha":447,"x_min":0,"x_max":0,"o":"m 258 1021 l 149 1021 l 149 743 b 94 771 133 757 117 771 b 33 721 65 771 43 746 b 18 622 22 692 18 654 l 18 138 b 33 40 18 106 22 68 b 94 -11 43 13 65 -11 b 128 -1 106 -11 119 -7 b 149 18 132 1 144 14 l 149 0 l 258 0 z m 401 1021 l 289 1021 l 289 867 l 324 867 l 289 686 l 356 686 l 401 867 z m 149 167 b 136 121 149 140 142 121 b 126 167 131 121 126 140 l 126 593 b 136 639 126 619 131 639 b 149 593 142 639 149 615 z "},"đ":{"ha":321,"x_min":0,"x_max":0,"o":"m 278 961 l 258 961 l 258 1021 l 149 1021 l 149 961 l 132 961 l 132 829 l 149 829 l 149 743 b 94 771 133 757 117 771 b 33 721 65 771 43 746 b 18 622 22 692 18 654 l 18 138 b 33 40 18 106 22 68 b 94 -11 43 13 65 -11 b 128 -1 106 -11 119 -7 b 149 18 132 1 144 14 l 149 0 l 258 0 l 258 829 l 278 829 z m 149 167 b 136 121 149 140 142 121 b 126 167 131 121 126 140 l 126 593 b 136 639 126 619 131 639 b 149 593 142 639 149 615 z "},"e":{"ha":310,"x_min":0,"x_max":0,"o":"m 168 272 l 168 189 b 142 113 168 163 164 113 b 121 189 126 113 121 158 l 121 354 l 272 354 l 272 581 b 142 771 272 668 258 771 b 14 576 49 771 14 667 l 14 181 b 135 -11 14 93 38 -11 b 272 176 242 -11 272 78 l 272 272 z m 121 571 b 140 649 121 593 122 649 b 168 571 164 649 168 608 l 168 464 l 121 464 z "},"é":{"ha":310,"x_min":0,"x_max":0,"o":"m 139 1010 l 94 885 l 183 885 l 250 1010 z m 168 272 l 168 189 b 142 113 168 163 164 113 b 121 189 126 113 121 158 l 121 354 l 272 354 l 272 581 b 142 771 272 668 258 771 b 14 576 49 771 14 667 l 14 181 b 135 -11 14 93 38 -11 b 272 176 242 -11 272 78 l 272 272 z m 121 571 b 140 649 121 593 122 649 b 168 571 164 649 168 608 l 168 464 l 121 464 z "},"ĕ":{"ha":310,"x_min":0,"x_max":0,"o":"m 193 1028 b 144 985 193 1028 167 985 b 99 1029 119 985 99 1029 l 42 950 b 144 883 60 914 101 883 b 247 950 188 883 222 911 z m 168 272 l 168 189 b 142 113 168 163 164 113 b 121 189 126 113 121 158 l 121 354 l 272 354 l 272 581 b 142 771 272 668 258 771 b 14 576 49 771 14 667 l 14 181 b 135 -11 14 93 38 -11 b 272 176 242 -11 272 78 l 272 272 z m 121 571 b 140 649 121 593 122 649 b 168 571 164 649 168 608 l 168 464 l 121 464 z "},"ě":{"ha":310,"x_min":0,"x_max":0,"o":"m 199 885 l 256 1010 l 165 1010 l 142 956 l 118 1010 l 28 1010 l 86 885 z m 168 272 l 168 189 b 142 113 168 163 164 113 b 121 189 126 113 121 158 l 121 354 l 272 354 l 272 581 b 142 771 272 668 258 771 b 14 576 49 771 14 667 l 14 181 b 135 -11 14 93 38 -11 b 272 176 242 -11 272 78 l 272 272 z m 121 571 b 140 649 121 593 122 649 b 168 571 164 649 168 608 l 168 464 l 121 464 z "},"ê":{"ha":310,"x_min":0,"x_max":0,"o":"m 86 1010 l 28 885 l 118 885 l 142 939 l 165 885 l 256 885 l 199 1010 z m 168 272 l 168 189 b 142 113 168 163 164 113 b 121 189 126 113 121 158 l 121 354 l 272 354 l 272 581 b 142 771 272 668 258 771 b 14 576 49 771 14 667 l 14 181 b 135 -11 14 93 38 -11 b 272 176 242 -11 272 78 l 272 272 z m 121 571 b 140 649 121 593 122 649 b 168 571 164 649 168 608 l 168 464 l 121 464 z "},"ë":{"ha":310,"x_min":0,"x_max":0,"o":"m 25 885 l 128 885 l 128 1021 l 25 1021 z m 160 885 l 261 885 l 261 1021 l 160 1021 z m 168 272 l 168 189 b 142 113 168 163 164 113 b 121 189 126 113 121 158 l 121 354 l 272 354 l 272 581 b 142 771 272 668 258 771 b 14 576 49 771 14 667 l 14 181 b 135 -11 14 93 38 -11 b 272 176 242 -11 272 78 l 272 272 z m 121 571 b 140 649 121 593 122 649 b 168 571 164 649 168 608 l 168 464 l 121 464 z "},"ė":{"ha":310,"x_min":0,"x_max":0,"o":"m 90 881 l 200 881 l 200 1021 l 90 1021 z m 168 272 l 168 189 b 142 113 168 163 164 113 b 121 189 126 113 121 158 l 121 354 l 272 354 l 272 581 b 142 771 272 668 258 771 b 14 576 49 771 14 667 l 14 181 b 135 -11 14 93 38 -11 b 272 176 242 -11 272 78 l 272 272 z m 121 571 b 140 649 121 593 122 649 b 168 571 164 649 168 608 l 168 464 l 121 464 z "},"è":{"ha":310,"x_min":0,"x_max":0,"o":"m 31 1010 l 96 885 l 185 885 l 142 1010 z m 168 272 l 168 189 b 142 113 168 163 164 113 b 121 189 126 113 121 158 l 121 354 l 272 354 l 272 581 b 142 771 272 668 258 771 b 14 576 49 771 14 667 l 14 181 b 135 -11 14 93 38 -11 b 272 176 242 -11 272 78 l 272 272 z m 121 571 b 140 649 121 593 122 649 b 168 571 164 649 168 608 l 168 464 l 121 464 z "},"ē":{"ha":310,"x_min":0,"x_max":0,"o":"m 51 892 l 238 892 l 238 1001 l 51 1001 z m 168 272 l 168 189 b 142 113 168 163 164 113 b 121 189 126 113 121 158 l 121 354 l 272 354 l 272 581 b 142 771 272 668 258 771 b 14 576 49 771 14 667 l 14 181 b 135 -11 14 93 38 -11 b 272 176 242 -11 272 78 l 272 272 z m 121 571 b 140 649 121 593 122 649 b 168 571 164 649 168 608 l 168 464 l 121 464 z "},"ę":{"ha":310,"x_min":0,"x_max":0,"o":"m 168 272 l 168 189 b 142 113 168 163 164 113 b 121 189 126 113 121 158 l 121 354 l 272 354 l 272 581 b 142 771 272 668 258 771 b 14 576 49 771 14 667 l 14 181 b 129 -11 14 94 36 -7 l 135 -11 b 147 -11 142 -11 143 -12 b 128 -43 142 -19 132 -33 b 99 -143 114 -69 99 -110 b 197 -261 99 -206 135 -261 b 251 -244 214 -261 228 -258 l 258 -140 b 211 -168 238 -156 218 -168 b 182 -115 197 -168 182 -156 b 188 -69 182 -99 183 -83 b 218 0 196 -39 206 -19 l 193 0 b 272 176 253 26 272 99 l 272 272 z m 121 571 b 140 649 121 593 122 649 b 168 571 164 649 168 608 l 168 464 l 121 464 z "},"f":{"ha":235,"x_min":0,"x_max":0,"o":"m 147 0 l 147 633 l 190 633 l 190 760 l 147 760 l 147 813 b 160 899 147 847 147 885 b 199 897 167 906 183 907 l 199 1013 b 147 1026 182 1022 165 1026 b 39 804 46 1026 40 897 l 39 760 l -4 760 l -4 633 l 39 633 l 39 0 z "},"g":{"ha":340,"x_min":0,"x_max":0,"o":"m 265 596 b 260 629 265 604 263 624 b 311 646 267 639 285 646 l 311 771 b 224 724 274 771 247 751 b 138 771 207 754 179 771 b 11 578 44 771 13 658 l 11 371 b 64 206 11 307 29 258 b 7 92 35 179 7 133 b 67 -10 7 35 35 6 l 65 -10 b -7 -125 29 -36 -7 -72 b 140 -272 -7 -214 44 -272 b 297 -78 254 -272 297 -179 b 254 56 297 -15 279 25 b 171 99 232 81 201 90 b 115 146 150 104 115 118 b 124 179 115 160 119 172 l 131 179 b 265 367 225 179 261 286 z m 158 364 b 138 296 158 344 156 296 b 119 364 124 296 119 338 l 119 579 b 138 649 119 607 124 649 b 158 579 156 649 158 610 z m 157 -49 b 193 -103 175 -56 193 -69 b 142 -154 193 -131 172 -154 b 99 -101 111 -154 99 -131 b 124 -37 99 -72 111 -51 z "},"ğ":{"ha":326,"x_min":0,"x_max":0,"o":"m 197 1028 b 149 985 197 1028 171 985 b 103 1029 124 985 103 1029 l 46 950 b 149 883 64 914 106 883 b 251 950 192 883 226 911 z m 265 596 b 260 629 265 604 263 624 b 311 646 267 639 285 646 l 311 771 b 224 724 274 771 247 751 b 138 771 207 754 179 771 b 11 578 44 771 13 658 l 11 371 b 64 206 11 307 29 258 b 7 92 35 179 7 133 b 67 -10 7 35 35 6 l 65 -10 b -7 -125 29 -36 -7 -72 b 140 -272 -7 -214 44 -272 b 297 -78 254 -272 297 -179 b 254 56 297 -15 279 25 b 171 99 232 81 201 90 b 115 146 150 104 115 118 b 124 179 115 160 119 172 l 131 179 b 265 367 225 179 261 286 z m 158 364 b 138 296 158 344 156 296 b 119 364 124 296 119 338 l 119 579 b 138 649 119 607 124 649 b 158 579 156 649 158 610 z m 157 -49 b 193 -103 175 -56 193 -69 b 142 -154 193 -131 172 -154 b 99 -101 111 -154 99 -131 b 124 -37 99 -72 111 -51 z "},"ĝ":{"ha":326,"x_min":0,"x_max":0,"o":"m 86 1010 l 28 885 l 118 885 l 142 939 l 165 885 l 256 885 l 199 1010 z m 265 596 b 260 629 265 604 263 624 b 311 646 267 639 285 646 l 311 771 b 224 724 274 771 247 751 b 138 771 207 754 179 771 b 11 578 44 771 13 658 l 11 371 b 64 206 11 307 29 258 b 7 92 35 179 7 133 b 67 -10 7 35 35 6 l 65 -10 b -7 -125 29 -36 -7 -72 b 140 -272 -7 -214 44 -272 b 297 -78 254 -272 297 -179 b 254 56 297 -15 279 25 b 171 99 232 81 201 90 b 115 146 150 104 115 118 b 124 179 115 160 119 172 l 131 179 b 265 367 225 179 261 286 z m 158 364 b 138 296 158 344 156 296 b 119 364 124 296 119 338 l 119 579 b 138 649 119 607 124 649 b 158 579 156 649 158 610 z m 157 -49 b 193 -103 175 -56 193 -69 b 142 -154 193 -131 172 -154 b 99 -101 111 -154 99 -131 b 124 -37 99 -72 111 -51 z "},"ģ":{"ha":326,"x_min":0,"x_max":0,"o":"m 89 947 l 201 947 l 201 1101 l 172 1101 l 201 1282 l 135 1282 l 89 1101 z m 265 596 b 260 629 265 604 263 624 b 311 646 267 639 285 646 l 311 771 b 224 724 274 771 247 751 b 138 771 207 754 179 771 b 11 578 44 771 13 658 l 11 371 b 64 206 11 307 29 258 b 7 92 35 179 7 133 b 67 -10 7 35 35 6 l 65 -10 b -7 -125 29 -36 -7 -72 b 140 -272 -7 -214 44 -272 b 297 -78 254 -272 297 -179 b 254 56 297 -15 279 25 b 171 99 232 81 201 90 b 115 146 150 104 115 118 b 124 179 115 160 119 172 l 131 179 b 265 367 225 179 261 286 z m 158 364 b 138 296 158 344 156 296 b 119 364 124 296 119 338 l 119 579 b 138 649 119 607 124 649 b 158 579 156 649 158 610 z m 157 -49 b 193 -103 175 -56 193 -69 b 142 -154 193 -131 172 -154 b 99 -101 111 -154 99 -131 b 124 -37 99 -72 111 -51 z "},"ġ":{"ha":326,"x_min":0,"x_max":0,"o":"m 89 881 l 199 881 l 199 1021 l 89 1021 z m 265 596 b 260 629 265 604 263 624 b 311 646 267 639 285 646 l 311 771 b 224 724 274 771 247 751 b 138 771 207 754 179 771 b 11 578 44 771 13 658 l 11 371 b 64 206 11 307 29 258 b 7 92 35 179 7 133 b 67 -10 7 35 35 6 l 65 -10 b -7 -125 29 -36 -7 -72 b 140 -272 -7 -214 44 -272 b 297 -78 254 -272 297 -179 b 254 56 297 -15 279 25 b 171 99 232 81 201 90 b 115 146 150 104 115 118 b 124 179 115 160 119 172 l 131 179 b 265 367 225 179 261 286 z m 158 364 b 138 296 158 344 156 296 b 119 364 124 296 119 338 l 119 579 b 138 649 119 607 124 649 b 158 579 156 649 158 610 z m 157 -49 b 193 -103 175 -56 193 -69 b 142 -154 193 -131 172 -154 b 99 -101 111 -154 99 -131 b 124 -37 99 -72 111 -51 z "},"h":{"ha":318,"x_min":0,"x_max":0,"o":"m 131 599 b 149 649 131 617 133 649 b 167 599 165 649 167 615 l 167 0 l 271 0 l 271 622 b 190 771 271 668 260 771 b 131 728 167 771 133 746 l 131 1021 l 21 1021 l 21 0 l 131 0 z "},"ħ":{"ha":322,"x_min":0,"x_max":0,"o":"m 131 599 b 149 649 131 617 133 649 b 167 599 165 649 167 615 l 167 0 l 271 0 l 271 622 b 190 771 271 668 260 771 b 131 729 167 771 135 747 l 131 850 l 176 850 l 176 960 l 131 960 l 131 1021 l 21 1021 l 21 960 l -11 960 l -11 850 l 21 850 l 21 0 l 131 0 z "},"ĥ":{"ha":322,"x_min":0,"x_max":0,"o":"m 140 913 l 156 885 l 256 885 l 199 1010 l 131 1010 l 131 1021 l 21 1021 l 21 0 l 131 0 l 131 599 b 149 649 131 617 133 649 b 167 599 165 649 167 615 l 167 0 l 271 0 l 271 622 b 190 771 271 668 260 771 b 131 729 167 771 135 747 l 131 888 z "},"i":{"ha":183,"x_min":0,"x_max":0,"o":"m 21 881 l 131 881 l 131 1021 l 21 1021 z m 131 0 l 131 760 l 21 760 l 21 0 z "},"ı":{"ha":193,"x_min":0,"x_max":0,"o":"m 131 0 l 131 760 l 21 760 l 21 0 z "},"í":{"ha":193,"x_min":0,"x_max":0,"o":"m 64 1010 l 21 885 l 110 885 l 175 1010 z m 131 0 l 131 760 l 21 760 l 21 0 z "},"ĭ":{"ha":193,"x_min":0,"x_max":0,"o":"m 129 1028 b 81 985 129 1028 103 985 b 35 1029 56 985 35 1029 l -22 950 b 81 883 -4 914 38 883 b 183 950 124 883 158 911 z m 131 0 l 131 760 l 21 760 l 21 0 z "},"î":{"ha":193,"x_min":0,"x_max":0,"o":"m 21 1010 l -37 885 l 53 885 l 76 939 l 100 885 l 190 885 l 133 1010 z m 131 0 l 131 760 l 21 760 l 21 0 z "},"ï":{"ha":193,"x_min":0,"x_max":0,"o":"m -42 885 l 61 885 l 61 1021 l -42 1021 z m 93 885 l 194 885 l 194 1021 l 93 1021 z m 131 0 l 131 760 l 21 760 l 21 0 z "},"ì":{"ha":193,"x_min":0,"x_max":0,"o":"m -25 1010 l 42 885 l 131 885 l 86 1010 z m 131 0 l 131 760 l 21 760 l 21 0 z "},"ĳ":{"ha":340,"x_min":0,"x_max":0,"o":"m 21 881 l 131 881 l 131 1021 l 21 1021 z m 171 881 l 281 881 l 281 1021 l 171 1021 z m 131 0 l 131 760 l 21 760 l 21 0 z m 171 760 l 171 -50 b 125 -124 171 -82 175 -140 l 122 -250 b 171 -261 143 -260 156 -261 b 268 -169 224 -261 256 -218 b 281 -19 281 -119 281 -58 l 281 760 z "},"ī":{"ha":193,"x_min":0,"x_max":0,"o":"m -17 892 l 169 892 l 169 1001 l -17 1001 z m 131 0 l 131 760 l 21 760 l 21 0 z "},"į":{"ha":193,"x_min":0,"x_max":0,"o":"m 131 1021 l 21 1021 l 21 881 l 131 881 z m 131 0 l 131 760 l 21 760 l 21 0 l 56 0 b 31 -35 43 -15 36 -26 l 25 -43 b -3 -143 11 -69 -3 -110 b 94 -261 -3 -206 32 -261 b 149 -244 111 -261 125 -258 l 156 -140 b 108 -168 135 -156 115 -168 b 79 -115 94 -168 79 -156 b 85 -69 79 -99 81 -83 b 115 0 93 -42 104 -18 z "},"ĩ":{"ha":193,"x_min":0,"x_max":0,"o":"m -17 865 b 39 907 -10 875 22 907 b 114 881 67 907 82 881 b 169 915 139 881 158 897 l 169 1031 b 114 990 161 1017 132 990 b 40 1014 88 990 72 1014 b -17 985 19 1014 -4 1003 z m 131 0 l 131 760 l 21 760 l 21 0 z "},"j":{"ha":190,"x_min":0,"x_max":0,"o":"m 18 881 l 128 881 l 128 1021 l 18 1021 z m 18 760 l 18 -50 b -28 -124 18 -82 22 -140 l -31 -250 b 18 -261 -10 -260 3 -261 b 115 -169 71 -261 103 -218 b 128 -19 128 -119 128 -58 l 128 760 z "},"ĵ":{"ha":190,"x_min":0,"x_max":0,"o":"m 189 896 l 131 1021 l 18 1021 l -39 896 l 18 896 l 18 881 l 128 881 l 128 896 z m 129 760 l 129 -19 b 117 -169 129 -58 129 -119 b 19 -261 104 -218 72 -261 b -29 -250 4 -261 -8 -260 l -26 -124 b 19 -50 24 -140 19 -82 l 19 760 z "},"k":{"ha":303,"x_min":0,"x_max":0,"o":"m 21 1021 l 21 0 l 126 0 l 126 322 l 175 0 l 281 0 l 190 499 l 283 760 l 178 760 l 126 601 l 126 1021 z "},"ķ":{"ha":303,"x_min":0,"x_max":0,"o":"m 21 1021 l 21 0 l 126 0 l 126 322 l 175 0 l 281 0 l 190 499 l 283 760 l 178 760 l 126 601 l 126 1021 z m 192 -75 l 97 -75 l 97 -171 l 122 -171 l 106 -261 l 174 -261 l 192 -171 z "},"ĸ":{"ha":303,"x_min":0,"x_max":0,"o":"m 21 1021 l 21 0 l 126 0 l 126 322 l 175 0 l 281 0 l 190 499 l 283 760 l 178 760 l 126 601 l 126 1021 z "},"l":{"ha":190,"x_min":0,"x_max":0,"o":"m 131 0 l 131 1021 l 21 1021 l 21 0 z "},"ĺ":{"ha":193,"x_min":0,"x_max":0,"o":"m 42 1164 l -1 1039 l 88 1039 l 153 1164 z m 131 0 l 131 1021 l 21 1021 l 21 0 z "},"ľ":{"ha":318,"x_min":0,"x_max":0,"o":"m 131 0 l 131 1021 l 21 1021 l 21 0 z m 294 1021 l 182 1021 l 182 867 l 211 867 l 182 686 l 249 686 l 294 867 z "},"ļ":{"ha":193,"x_min":0,"x_max":0,"o":"m 131 0 l 131 1021 l 21 1021 l 21 0 z m 125 -65 l 31 -65 l 31 -161 l 56 -161 l 39 -251 l 107 -251 l 125 -161 z "},"ŀ":{"ha":310,"x_min":0,"x_max":0,"o":"m 131 0 l 131 1021 l 21 1021 l 21 0 z m 172 440 l 285 440 l 285 594 l 172 594 z "},"ł":{"ha":232,"x_min":0,"x_max":0,"o":"m 150 0 l 150 543 l 149 543 l 190 599 l 190 776 b 150 724 181 763 163 740 l 150 1021 l 40 1021 l 40 583 l 42 583 l 0 528 l 0 350 b 40 403 10 364 28 386 l 40 0 z "},"m":{"ha":457,"x_min":0,"x_max":0,"o":"m 271 599 b 292 649 271 615 276 649 b 313 599 307 649 313 628 l 313 0 l 414 0 l 414 622 b 344 771 414 668 414 771 b 258 715 314 771 272 746 b 206 771 256 743 236 771 b 131 719 179 771 147 747 l 131 760 l 21 760 l 21 0 l 131 0 l 131 599 b 150 649 131 625 138 649 b 171 601 164 649 171 631 l 171 0 l 271 0 z "},"n":{"ha":322,"x_min":0,"x_max":0,"o":"m 131 599 b 150 649 131 628 136 649 b 171 600 164 649 171 629 l 171 0 l 279 0 l 279 622 b 204 771 279 668 274 771 b 131 721 181 771 144 742 l 131 760 l 21 760 l 21 0 l 131 0 z "},"ń":{"ha":322,"x_min":0,"x_max":0,"o":"m 107 1010 l 64 885 l 151 885 l 218 1010 z m 131 599 b 150 649 131 628 136 649 b 171 600 164 649 171 629 l 171 0 l 279 0 l 279 622 b 204 771 279 668 274 771 b 131 721 181 771 144 742 l 131 760 l 21 760 l 21 0 l 131 0 z "},"ŉ":{"ha":322,"x_min":0,"x_max":0,"o":"m 85 978 l -11 978 l -11 882 l 15 882 l -1 792 l 65 792 l 85 882 z m 131 599 b 150 649 131 628 136 649 b 171 600 164 649 171 629 l 171 0 l 279 0 l 279 622 b 204 771 279 668 274 771 b 131 721 181 771 144 742 l 131 760 l 21 760 l 21 0 l 131 0 z "},"ň":{"ha":322,"x_min":0,"x_max":0,"o":"m 196 885 l 253 1010 l 163 1010 l 139 956 l 115 1010 l 25 1010 l 83 885 z m 131 599 b 150 649 131 628 136 649 b 171 600 164 649 171 629 l 171 0 l 279 0 l 279 622 b 204 771 279 668 274 771 b 131 721 181 771 144 742 l 131 760 l 21 760 l 21 0 l 131 0 z "},"ņ":{"ha":322,"x_min":0,"x_max":0,"o":"m 131 599 b 150 649 131 628 136 649 b 171 600 164 649 171 629 l 171 0 l 279 0 l 279 622 b 204 771 279 668 274 771 b 131 721 181 771 144 742 l 131 760 l 21 760 l 21 0 l 131 0 z m 192 -75 l 97 -75 l 97 -171 l 122 -171 l 106 -261 l 174 -261 l 192 -171 z "},"ŋ":{"ha":322,"x_min":0,"x_max":0,"o":"m 131 599 b 150 649 131 628 136 649 b 171 601 164 649 171 629 l 171 -8 b 165 -49 171 -26 168 -42 l 167 -49 b 126 -62 158 -61 144 -67 l 126 -183 b 250 -139 190 -189 229 -169 b 279 -26 271 -108 279 -65 l 279 622 b 204 771 279 668 274 771 b 131 721 181 771 144 742 l 131 760 l 21 760 l 21 0 l 131 0 z "},"ñ":{"ha":322,"x_min":0,"x_max":0,"o":"m 47 865 b 103 907 54 875 86 907 b 178 881 131 907 146 881 b 233 915 203 881 222 897 l 233 1031 b 178 990 225 1017 196 990 b 104 1014 151 990 136 1014 b 47 985 83 1014 60 1003 z m 131 599 b 150 649 131 628 136 649 b 171 600 164 649 171 629 l 171 0 l 279 0 l 279 622 b 204 771 279 668 274 771 b 131 721 181 771 144 742 l 131 760 l 21 760 l 21 0 l 131 0 z "},"o":{"ha":310,"x_min":0,"x_max":0,"o":"m 271 575 b 144 771 271 682 256 771 b 14 571 42 771 14 676 l 14 189 b 142 -11 14 94 32 -11 b 271 185 242 -11 271 68 z m 167 175 b 142 113 168 163 164 113 b 118 175 122 113 117 144 l 118 585 b 143 649 118 622 124 649 b 167 585 165 649 168 619 z "},"ó":{"ha":310,"x_min":0,"x_max":0,"o":"m 136 1010 l 93 885 l 182 885 l 247 1010 z m 271 575 b 144 771 271 682 256 771 b 14 571 42 771 14 676 l 14 189 b 142 -11 14 94 32 -11 b 271 185 242 -11 271 68 z m 167 175 b 142 113 168 163 164 113 b 118 175 122 113 117 144 l 118 585 b 143 649 118 622 124 649 b 167 585 165 649 168 619 z "},"ŏ":{"ha":310,"x_min":0,"x_max":0,"o":"m 183 1028 b 135 985 183 1028 157 985 b 89 1029 110 985 89 1029 l 32 950 b 135 883 50 914 92 883 b 238 950 178 883 213 911 z m 271 575 b 144 771 271 682 256 771 b 14 571 42 771 14 676 l 14 189 b 142 -11 14 94 32 -11 b 271 185 242 -11 271 68 z m 167 175 b 142 113 168 163 164 113 b 118 175 122 113 117 144 l 118 585 b 143 649 118 622 124 649 b 167 585 165 649 168 619 z "},"ô":{"ha":310,"x_min":0,"x_max":0,"o":"m 86 1010 l 28 885 l 118 885 l 142 939 l 165 885 l 256 885 l 199 1010 z m 271 575 b 144 771 271 682 256 771 b 14 571 42 771 14 676 l 14 189 b 142 -11 14 94 32 -11 b 271 185 242 -11 271 68 z m 167 175 b 142 113 168 163 164 113 b 118 175 122 113 117 144 l 118 585 b 143 649 118 622 124 649 b 167 585 165 649 168 619 z "},"ö":{"ha":310,"x_min":0,"x_max":0,"o":"m 25 885 l 128 885 l 128 1021 l 25 1021 z m 160 885 l 261 885 l 261 1021 l 160 1021 z m 271 575 b 144 771 271 682 256 771 b 14 571 42 771 14 676 l 14 189 b 142 -11 14 94 32 -11 b 271 185 242 -11 271 68 z m 167 175 b 142 113 168 163 164 113 b 118 175 122 113 117 144 l 118 585 b 143 649 118 622 124 649 b 167 585 165 649 168 619 z "},"ò":{"ha":310,"x_min":0,"x_max":0,"o":"m 29 1010 l 94 885 l 183 885 l 140 1010 z m 271 575 b 144 771 271 682 256 771 b 14 571 42 771 14 676 l 14 189 b 142 -11 14 94 32 -11 b 271 185 242 -11 271 68 z m 167 175 b 142 113 168 163 164 113 b 118 175 122 113 117 144 l 118 585 b 143 649 118 622 124 649 b 167 585 165 649 168 619 z "},"ő":{"ha":310,"x_min":0,"x_max":0,"o":"m 39 1010 l -6 885 l 83 885 l 150 1010 z m 189 1010 l 146 885 l 235 885 l 300 1010 z m 271 575 b 144 771 271 682 256 771 b 14 571 42 771 14 676 l 14 189 b 142 -11 14 94 32 -11 b 271 185 242 -11 271 68 z m 167 175 b 142 113 168 163 164 113 b 118 175 122 113 117 144 l 118 585 b 143 649 118 622 124 649 b 167 585 165 649 168 619 z "},"ō":{"ha":310,"x_min":0,"x_max":0,"o":"m 42 892 l 228 892 l 228 1001 l 42 1001 z m 271 575 b 144 771 271 682 256 771 b 14 571 42 771 14 676 l 14 189 b 142 -11 14 94 32 -11 b 271 185 242 -11 271 68 z m 167 175 b 142 113 168 163 164 113 b 118 175 122 113 117 144 l 118 585 b 143 649 118 622 124 649 b 167 585 165 649 168 619 z "},"ø":{"ha":318,"x_min":0,"x_max":0,"o":"m 196 764 b 149 771 182 768 167 771 b 18 571 46 771 18 676 l 18 189 b 50 36 18 133 24 75 l 33 -51 l 96 -51 l 104 -4 b 146 -11 117 -8 131 -11 b 275 185 246 -11 275 68 l 275 575 b 247 724 275 633 271 688 l 265 811 l 206 811 z m 122 393 l 122 585 b 147 649 122 622 128 649 b 168 626 160 649 165 640 z m 171 331 l 171 175 b 146 113 172 163 168 113 b 129 122 139 113 133 117 z "},"õ":{"ha":310,"x_min":0,"x_max":0,"o":"m 40 864 b 96 906 47 874 79 906 b 171 879 124 906 139 879 b 226 914 196 879 215 896 l 226 1029 b 171 989 218 1015 189 989 b 97 1013 144 989 129 1013 b 40 983 76 1013 53 1001 z m 271 575 b 144 771 271 682 256 771 b 14 571 42 771 14 676 l 14 189 b 142 -11 14 94 32 -11 b 271 185 242 -11 271 68 z m 167 175 b 142 113 168 163 164 113 b 118 175 122 113 117 144 l 118 585 b 143 649 118 622 124 649 b 167 585 165 649 168 619 z "},"œ":{"ha":447,"x_min":0,"x_max":0,"o":"m 325 272 l 325 189 b 299 113 325 163 321 113 b 278 189 283 113 278 158 l 278 354 l 429 354 l 429 581 b 299 771 429 668 415 771 b 228 743 269 771 246 760 b 146 771 208 761 182 771 b 15 571 43 771 15 676 l 15 189 b 143 -11 15 94 33 -11 b 222 14 176 -11 203 -1 b 292 -11 239 -1 261 -11 b 429 176 399 -11 429 78 l 429 272 z m 168 175 b 143 113 169 163 165 113 b 119 175 124 113 118 144 l 119 585 b 144 649 119 622 125 649 b 168 585 167 649 169 619 z m 278 571 b 297 649 278 593 279 649 b 325 571 321 649 325 608 l 325 464 l 278 464 z "},"p":{"ha":321,"x_min":0,"x_max":0,"o":"m 21 -261 l 131 -261 l 131 44 b 203 -11 144 14 178 -11 b 279 138 271 -11 278 83 l 279 622 b 203 771 279 671 274 771 b 131 721 178 771 142 746 l 131 760 l 21 760 z m 131 597 b 151 649 131 624 136 649 b 171 597 167 649 171 624 l 171 167 b 151 121 171 136 165 121 b 131 167 138 121 131 135 z "},"þ":{"ha":321,"x_min":0,"x_max":0,"o":"m 19 -261 l 129 -261 l 129 42 b 208 -11 136 25 172 -11 b 271 138 276 -11 269 83 l 271 622 b 186 771 271 685 257 771 b 129 728 167 771 133 746 l 129 1021 l 19 1021 z m 129 599 b 149 649 129 621 135 649 b 168 599 161 649 168 625 l 168 174 b 149 121 168 146 164 121 b 129 174 135 121 129 147 z "},"q":{"ha":321,"x_min":0,"x_max":0,"o":"m 279 760 l 169 760 l 169 721 b 97 771 158 746 122 771 b 21 622 26 771 21 671 l 21 138 b 97 -11 22 83 29 -11 b 169 44 122 -11 156 14 l 169 -261 l 279 -261 z m 169 167 b 149 121 169 135 163 121 b 129 167 135 121 129 136 l 129 597 b 149 649 129 624 133 649 b 169 597 164 649 169 624 z "},"r":{"ha":247,"x_min":0,"x_max":0,"o":"m 221 771 b 128 718 174 771 143 744 l 128 760 l 21 760 l 21 0 l 128 0 l 128 528 b 221 604 128 588 156 642 z "},"ŕ":{"ha":247,"x_min":0,"x_max":0,"o":"m 69 1010 l 26 885 l 114 885 l 181 1010 z m 221 771 b 128 718 174 771 143 744 l 128 760 l 21 760 l 21 0 l 128 0 l 128 528 b 221 604 128 588 156 642 z "},"ř":{"ha":247,"x_min":0,"x_max":0,"o":"m 161 885 l 218 1010 l 128 1010 l 104 956 l 81 1010 l -10 1010 l 49 885 z m 221 771 b 128 718 174 771 143 744 l 128 760 l 21 760 l 21 0 l 128 0 l 128 528 b 221 604 128 588 156 642 z "},"ŗ":{"ha":247,"x_min":0,"x_max":0,"o":"m 221 771 b 128 718 174 771 143 744 l 128 760 l 21 760 l 21 0 l 128 0 l 128 528 b 221 604 128 588 156 642 z m 124 -67 l 28 -67 l 28 -162 l 54 -162 l 38 -253 l 106 -253 l 124 -162 z "},"s":{"ha":299,"x_min":0,"x_max":0,"o":"m 258 565 b 136 771 258 640 250 771 b 17 590 53 771 17 688 b 94 361 17 492 58 433 b 151 197 122 303 151 246 b 129 106 151 139 149 106 b 103 221 110 106 103 172 l 3 221 b 129 -11 3 118 11 -11 b 256 172 238 -11 256 107 b 172 424 256 281 208 364 b 119 575 151 464 119 515 b 139 654 119 604 121 654 b 164 565 160 654 164 589 z "},"ś":{"ha":299,"x_min":0,"x_max":0,"o":"m 94 1010 l 51 885 l 140 885 l 206 1010 z m 258 565 b 136 771 258 640 250 771 b 17 590 53 771 17 688 b 94 361 17 492 58 433 b 151 197 122 303 151 246 b 129 106 151 139 149 106 b 103 221 110 106 103 172 l 3 221 b 129 -11 3 118 11 -11 b 256 172 238 -11 256 107 b 172 424 256 281 208 364 b 119 575 151 464 119 515 b 139 654 119 604 121 654 b 164 565 160 654 164 589 z "},"š":{"ha":299,"x_min":0,"x_max":0,"o":"m 183 885 l 240 1010 l 150 1010 l 126 956 l 103 1010 l 13 1010 l 71 885 z m 258 565 b 136 771 258 640 250 771 b 17 590 53 771 17 688 b 94 361 17 492 58 433 b 151 197 122 303 151 246 b 129 106 151 139 149 106 b 103 221 110 106 103 172 l 3 221 b 129 -11 3 118 11 -11 b 256 172 238 -11 256 107 b 172 424 256 281 208 364 b 119 575 151 464 119 515 b 139 654 119 604 121 654 b 164 565 160 654 164 589 z "},"ş":{"ha":299,"x_min":0,"x_max":0,"o":"m 258 565 b 136 771 258 640 250 771 b 17 590 53 771 17 688 b 94 361 17 492 58 433 b 151 197 122 303 151 246 b 129 106 151 139 149 106 b 103 221 110 106 103 172 l 3 221 b 129 -11 3 118 11 -11 b 256 172 238 -11 256 107 b 172 424 256 281 208 364 b 119 575 151 464 119 515 b 139 654 119 604 121 654 b 164 565 160 654 164 589 z m 176 -75 l 82 -75 l 82 -171 l 107 -171 l 90 -261 l 158 -261 l 176 -171 z "},"ŝ":{"ha":299,"x_min":0,"x_max":0,"o":"m 75 1010 l 17 885 l 107 885 l 131 939 l 154 885 l 244 885 l 188 1010 z m 258 565 b 136 771 258 640 250 771 b 17 590 53 771 17 688 b 94 361 17 492 58 433 b 151 197 122 303 151 246 b 129 106 151 139 149 106 b 103 221 110 106 103 172 l 3 221 b 129 -11 3 118 11 -11 b 256 172 238 -11 256 107 b 172 424 256 281 208 364 b 119 575 151 464 119 515 b 139 654 119 604 121 654 b 164 565 160 654 164 589 z "},"ß":{"ha":349,"x_min":0,"x_max":0,"o":"m 151 664 b 192 615 168 664 183 654 b 204 390 200 576 204 508 b 192 176 204 279 200 214 b 151 131 183 139 168 131 l 151 0 b 278 68 211 0 254 13 b 313 390 301 124 313 222 b 296 619 313 492 307 567 b 247 721 286 664 268 699 b 288 839 272 751 288 793 b 150 1032 288 926 258 1032 b 10 838 51 1032 10 936 l 10 0 l 119 0 l 119 838 b 150 907 119 879 129 907 b 188 839 174 907 188 876 b 151 760 188 790 171 760 z "},"ſ":{"ha":235,"x_min":0,"x_max":0,"o":"m 92 0 l 92 785 b 135 896 92 872 103 896 b 182 885 147 896 161 893 l 193 996 b 121 1010 165 1006 142 1010 b 3 796 50 1010 3 964 l 3 0 z "},"t":{"ha":243,"x_min":0,"x_max":0,"o":"m 49 947 l 49 760 l 3 760 l 3 633 l 49 633 l 49 0 l 156 0 l 156 633 l 214 633 l 214 760 l 156 760 l 156 947 z "},"ŧ":{"ha":246,"x_min":0,"x_max":0,"o":"m 156 760 l 156 892 l 197 892 l 197 1001 l 10 1001 l 10 892 l 49 892 l 49 760 l 3 760 l 3 633 l 49 633 l 49 0 l 156 0 l 156 633 l 214 633 l 214 760 z "},"ť":{"ha":390,"x_min":0,"x_max":0,"o":"m 360 1021 l 247 1021 l 247 867 l 282 867 l 247 686 l 314 686 l 360 867 z m 49 947 l 49 760 l 3 760 l 3 633 l 49 633 l 49 0 l 156 0 l 156 633 l 214 633 l 214 760 l 156 760 l 156 947 z "},"ț":{"ha":246,"x_min":0,"x_max":0,"o":"m 49 947 l 49 760 l 3 760 l 3 633 l 49 633 l 49 0 l 156 0 l 156 633 l 214 633 l 214 760 l 156 760 l 156 947 z m 192 -75 l 97 -75 l 97 -171 l 122 -171 l 106 -261 l 174 -261 l 192 -171 z "},"u":{"ha":322,"x_min":0,"x_max":0,"o":"m 164 161 b 144 111 164 132 158 111 b 124 160 131 111 124 131 l 124 760 l 15 760 l 15 138 b 90 -11 15 92 21 -11 b 164 39 114 -11 150 18 l 164 0 l 274 0 l 274 760 l 164 760 z "},"ú":{"ha":322,"x_min":0,"x_max":0,"o":"m 143 1010 l 99 885 l 188 885 l 254 1010 z m 164 161 b 144 111 164 132 158 111 b 124 160 131 111 124 131 l 124 760 l 15 760 l 15 138 b 90 -11 15 92 21 -11 b 164 39 114 -11 150 18 l 164 0 l 274 0 l 274 760 l 164 760 z "},"ŭ":{"ha":322,"x_min":0,"x_max":0,"o":"m 190 1028 b 142 985 190 1028 164 985 b 96 1029 117 985 96 1029 l 39 950 b 142 883 57 914 99 883 b 244 950 185 883 219 911 z m 164 161 b 144 111 164 132 158 111 b 124 160 131 111 124 131 l 124 760 l 15 760 l 15 138 b 90 -11 15 92 21 -11 b 164 39 114 -11 150 18 l 164 0 l 274 0 l 274 760 l 164 760 z "},"û":{"ha":322,"x_min":0,"x_max":0,"o":"m 86 1010 l 28 885 l 118 885 l 142 939 l 165 885 l 256 885 l 199 1010 z m 164 161 b 144 111 164 132 158 111 b 124 160 131 111 124 131 l 124 760 l 15 760 l 15 138 b 90 -11 15 92 21 -11 b 164 39 114 -11 150 18 l 164 0 l 274 0 l 274 760 l 164 760 z "},"ü":{"ha":322,"x_min":0,"x_max":0,"o":"m 24 885 l 126 885 l 126 1021 l 24 1021 z m 158 885 l 260 885 l 260 1021 l 158 1021 z m 164 161 b 144 111 164 132 158 111 b 124 160 131 111 124 131 l 124 760 l 15 760 l 15 138 b 90 -11 15 92 21 -11 b 164 39 114 -11 150 18 l 164 0 l 274 0 l 274 760 l 164 760 z "},"ù":{"ha":322,"x_min":0,"x_max":0,"o":"m 35 1010 l 100 885 l 189 885 l 146 1010 z m 164 161 b 144 111 164 132 158 111 b 124 160 131 111 124 131 l 124 760 l 15 760 l 15 138 b 90 -11 15 92 21 -11 b 164 39 114 -11 150 18 l 164 0 l 274 0 l 274 760 l 164 760 z "},"ű":{"ha":322,"x_min":0,"x_max":0,"o":"m 44 1010 l 1 885 l 90 885 l 156 1010 z m 196 1010 l 153 885 l 242 885 l 307 1010 z m 164 161 b 144 111 164 132 158 111 b 124 160 131 111 124 131 l 124 760 l 15 760 l 15 138 b 90 -11 15 92 21 -11 b 164 39 114 -11 150 18 l 164 0 l 274 0 l 274 760 l 164 760 z "},"ū":{"ha":322,"x_min":0,"x_max":0,"o":"m 49 892 l 235 892 l 235 1001 l 49 1001 z m 164 161 b 144 111 164 132 158 111 b 124 160 131 111 124 131 l 124 760 l 15 760 l 15 138 b 90 -11 15 92 21 -11 b 164 39 114 -11 150 18 l 164 0 l 274 0 l 274 760 l 164 760 z "},"ų":{"ha":322,"x_min":0,"x_max":0,"o":"m 164 161 b 144 111 164 132 158 111 b 124 160 131 111 124 131 l 124 760 l 15 760 l 15 138 b 90 -11 15 92 21 -11 b 164 39 114 -11 150 18 l 164 0 l 174 0 b 146 -39 161 -15 151 -31 b 143 -43 146 -40 144 -42 b 114 -143 129 -69 114 -111 b 211 -261 114 -206 149 -261 b 267 -244 231 -261 244 -257 l 274 -140 b 226 -168 253 -156 233 -168 b 197 -115 213 -168 197 -156 b 203 -69 197 -99 199 -83 b 232 0 211 -39 221 -15 l 274 0 l 274 760 l 164 760 z "},"ů":{"ha":322,"x_min":0,"x_max":0,"o":"m 67 964 b 142 867 67 907 100 867 b 215 964 183 867 215 907 b 142 1061 215 1021 183 1061 b 67 964 100 1061 67 1021 z m 124 964 b 142 1013 124 990 132 1013 b 160 964 150 1013 160 990 b 142 915 160 938 150 915 b 124 964 132 915 124 938 z m 164 161 b 144 111 164 132 158 111 b 124 160 131 111 124 131 l 124 760 l 15 760 l 15 138 b 90 -11 15 92 21 -11 b 164 39 114 -11 150 18 l 164 0 l 274 0 l 274 760 l 164 760 z "},"ũ":{"ha":322,"x_min":0,"x_max":0,"o":"m 46 865 b 101 907 53 875 85 907 b 176 881 129 907 144 881 b 232 915 201 881 221 897 l 232 1031 b 176 990 224 1017 194 990 b 103 1014 150 990 135 1014 b 46 985 82 1014 58 1003 z m 164 161 b 144 111 164 132 158 111 b 124 160 131 111 124 131 l 124 760 l 15 760 l 15 138 b 90 -11 15 92 21 -11 b 164 39 114 -11 150 18 l 164 0 l 274 0 l 274 760 l 164 760 z "},"v":{"ha":286,"x_min":0,"x_max":0,"o":"m 183 0 l 265 760 l 163 760 l 129 314 l 97 760 l -6 760 l 75 0 z "},"w":{"ha":410,"x_min":0,"x_max":0,"o":"m 306 0 l 372 760 l 274 760 l 247 411 l 218 760 l 151 760 l 121 411 l 94 760 l -4 760 l 64 0 l 153 0 l 183 361 l 215 0 z "},"ŵ":{"ha":410,"x_min":0,"x_max":0,"o":"m 126 1010 l 68 885 l 158 885 l 182 939 l 206 885 l 296 885 l 239 1010 z m 306 0 l 372 760 l 274 760 l 247 411 l 218 760 l 151 760 l 121 411 l 94 760 l -4 760 l 64 0 l 153 0 l 183 361 l 215 0 z "},"x":{"ha":301,"x_min":0,"x_max":0,"o":"m 8 0 l 111 0 b 139 206 118 46 131 160 l 169 0 l 271 0 l 193 392 l 279 760 l 176 760 l 139 569 l 104 760 l 1 760 l 86 392 z "},"y":{"ha":317,"x_min":0,"x_max":0,"o":"m 15 -268 b 156 -204 68 -289 124 -264 b 194 -57 178 -165 190 -107 l 289 760 l 181 760 b 144 311 174 657 151 415 l 104 760 l -3 760 l 89 -22 b 64 -137 89 -57 86 -104 b 15 -144 53 -151 36 -153 z "},"ý":{"ha":314,"x_min":0,"x_max":0,"o":"m 132 1010 l 89 885 l 178 885 l 243 1010 z m 15 -268 b 156 -204 68 -289 124 -264 b 194 -57 178 -165 190 -107 l 289 760 l 181 760 b 144 311 174 657 151 415 l 104 760 l -3 760 l 89 -22 b 64 -137 89 -57 86 -104 b 15 -144 53 -151 36 -153 z "},"ŷ":{"ha":300,"x_min":0,"x_max":0,"o":"m 89 1010 l 31 885 l 121 885 l 144 939 l 168 885 l 258 885 l 201 1010 z m 15 -268 b 156 -204 68 -289 124 -264 b 194 -57 178 -165 190 -107 l 289 760 l 181 760 b 144 311 174 657 151 415 l 104 760 l -3 760 l 89 -22 b 64 -137 89 -57 86 -104 b 15 -144 53 -151 36 -153 z "},"ÿ":{"ha":300,"x_min":0,"x_max":0,"o":"m 24 885 l 126 885 l 126 1021 l 24 1021 z m 158 885 l 260 885 l 260 1021 l 158 1021 z m 15 -268 b 156 -204 68 -289 124 -264 b 194 -57 178 -165 190 -107 l 289 760 l 181 760 b 144 311 174 657 151 415 l 104 760 l -3 760 l 89 -22 b 64 -137 89 -57 86 -104 b 15 -144 53 -151 36 -153 z "},"z":{"ha":258,"x_min":0,"x_max":0,"o":"m -7 0 l 222 0 l 222 128 l 107 128 l 222 646 l 222 760 l 11 760 l 11 632 l 108 632 l -7 114 z "},"ź":{"ha":258,"x_min":0,"x_max":0,"o":"m 75 1010 l 32 885 l 121 885 l 186 1010 z m -7 0 l 222 0 l 222 128 l 107 128 l 222 646 l 222 760 l 11 760 l 11 632 l 108 632 l -7 114 z "},"ž":{"ha":258,"x_min":0,"x_max":0,"o":"m 168 885 l 225 1010 l 135 1010 l 111 956 l 88 1010 l -3 1010 l 56 885 z m -7 0 l 222 0 l 222 128 l 107 128 l 222 646 l 222 760 l 11 760 l 11 632 l 108 632 l -7 114 z "},"ż":{"ha":258,"x_min":0,"x_max":0,"o":"m 64 881 l 172 881 l 172 1021 l 64 1021 z m -7 0 l 222 0 l 222 128 l 107 128 l 222 646 l 222 760 l 11 760 l 11 632 l 108 632 l -7 114 z "},"ﬁ":{"ha":356,"x_min":0,"x_max":0,"o":"m 147 0 l 147 633 l 190 633 l 190 0 l 299 0 l 299 760 l 147 760 l 147 813 b 160 899 147 847 147 885 b 199 897 167 906 183 907 l 199 1013 b 147 1026 182 1022 165 1026 b 39 804 46 1026 40 897 l 39 760 l -4 760 l -4 633 l 39 633 l 39 0 z "},"ﬂ":{"ha":356,"x_min":0,"x_max":0,"o":"m 300 0 l 300 1021 l 190 1021 b 147 1026 190 1021 165 1026 b 39 804 46 1026 40 897 l 39 760 l -4 760 l -4 633 l 39 633 l 39 0 l 147 0 l 147 633 l 190 633 l 190 0 z m 190 760 l 147 760 l 147 813 b 160 899 147 847 147 885 b 190 901 165 904 178 906 z "},"*":{"ha":318,"x_min":0,"x_max":0,"o":"m 101 915 l 35 947 l 15 851 l 93 825 l 28 735 l 96 667 l 138 751 l 181 667 l 247 735 l 188 825 l 261 851 l 240 947 l 175 914 l 182 1021 l 94 1021 z "},"\\":{"ha":364,"x_min":0,"x_max":0,"o":"m 82 1147 l -10 1147 l 239 -122 l 332 -122 z "},"•":{"ha":311,"x_min":0,"x_max":0,"o":"m 18 557 b 135 440 18 493 71 440 b 251 557 199 440 251 493 b 135 674 251 621 199 674 b 18 557 71 674 18 621 z "},":":{"ha":189,"x_min":0,"x_max":0,"o":"m 18 606 l 131 606 l 131 760 l 18 760 z m 18 0 l 131 0 l 131 154 l 18 154 z "},",":{"ha":168,"x_min":0,"x_max":0,"o":"m 118 154 l 6 154 l 6 0 l 40 0 l 6 -181 l 72 -181 l 118 0 z "},"…":{"ha":442,"x_min":0,"x_max":0,"o":"m 10 0 l 122 0 l 122 154 l 10 154 z m 154 0 l 267 0 l 267 154 l 154 154 z m 299 0 l 411 0 l 411 154 l 299 154 z "},"!":{"ha":199,"x_min":0,"x_max":0,"o":"m 40 275 l 118 275 l 140 1021 l 18 1021 z m 22 0 l 135 0 l 135 154 l 22 154 z "},"¡":{"ha":199,"x_min":0,"x_max":0,"o":"m 22 606 l 135 606 l 135 760 l 22 760 z m 18 -261 l 140 -261 l 118 485 l 40 485 z "},"#":{"ha":543,"x_min":0,"x_max":0,"o":"m 7 297 l 89 297 l 64 0 l 169 0 b 181 149 172 49 176 99 l 193 297 l 274 297 l 250 0 l 356 0 b 367 149 358 49 363 99 l 379 297 l 457 297 l 468 429 l 390 429 b 397 517 392 457 394 488 l 406 604 l 483 604 l 494 736 l 415 736 l 439 1021 l 335 1021 l 322 878 b 311 736 318 831 314 781 l 231 736 l 253 1021 l 149 1021 l 136 878 b 125 736 132 831 128 781 l 44 736 l 35 604 l 114 604 l 106 517 b 99 429 103 489 100 456 l 18 429 z m 219 604 l 300 604 l 292 517 b 285 429 289 489 286 456 l 204 429 z "},".":{"ha":172,"x_min":0,"x_max":0,"o":"m 10 0 l 122 0 l 122 154 l 10 154 z "},"·":{"ha":129,"x_min":0,"x_max":0,"o":"m -12 440 l 100 440 l 100 594 l -12 594 z "},"?":{"ha":213,"x_min":0,"x_max":0,"o":"m 161 275 l 161 449 b 165 522 161 475 161 499 b 199 639 172 567 185 606 b 217 683 206 654 211 669 b 257 846 238 733 257 789 b 129 1026 257 921 239 1026 b 25 958 83 1026 49 996 b -19 854 1 919 -15 876 l 64 797 b 85 858 68 810 74 836 b 126 896 96 879 108 896 b 133 756 188 896 146 785 b 90 632 119 721 103 682 b 63 449 78 582 63 522 l 63 275 z m 57 0 l 169 0 l 169 154 l 57 154 z "},"¿":{"ha":304,"x_min":0,"x_max":0,"o":"m 181 760 l 68 760 l 68 606 l 181 606 z m 76 485 l 76 311 b 72 238 76 285 76 261 b 39 121 65 193 53 154 b 21 76 32 106 26 90 b -19 -86 0 26 -19 -29 b 108 -267 -19 -161 -1 -267 b 213 -199 154 -267 189 -236 b 257 -94 236 -160 253 -117 l 174 -37 b 153 -99 169 -50 164 -76 b 111 -136 142 -119 129 -136 b 104 4 50 -136 92 -25 b 147 128 118 39 135 78 b 175 311 160 178 175 238 l 175 485 z "},"\"":{"ha":283,"x_min":0,"x_max":0,"o":"m 114 647 l 126 1021 l 14 1021 l 26 647 z m 254 647 l 267 1021 l 154 1021 l 167 647 z "},"'":{"ha":168,"x_min":0,"x_max":0,"o":"m 111 647 l 124 1021 l 11 1021 l 24 647 z "},";":{"ha":189,"x_min":0,"x_max":0,"o":"m 18 606 l 131 606 l 131 760 l 18 760 z m 131 154 l 18 154 l 18 0 l 53 0 l 18 -181 l 85 -181 l 131 0 z "},"/":{"ha":335,"x_min":0,"x_max":0,"o":"m -10 -100 l 85 -100 l 303 1021 l 211 1021 z "},"_":{"ha":492,"x_min":0,"x_max":0,"o":"m 18 -221 l 433 -221 l 433 -104 l 18 -104 z "},"{":{"ha":322,"x_min":0,"x_max":0,"o":"m 269 1032 b 65 782 94 1036 68 950 l 65 513 b 56 458 65 503 64 479 b 13 418 49 436 35 418 l 13 307 b 56 265 35 306 49 286 b 65 213 64 243 65 222 l 65 -57 b 269 -307 65 -218 86 -307 l 269 -190 b 171 -57 181 -190 174 -144 l 171 213 b 101 363 171 278 142 336 b 171 513 140 375 171 446 l 171 782 b 269 915 171 858 176 913 z "},"}":{"ha":322,"x_min":0,"x_max":0,"o":"m 11 915 b 110 782 104 913 110 858 l 110 513 b 179 363 110 446 140 375 b 110 213 139 336 110 278 l 110 -57 b 11 -190 107 -144 100 -190 l 11 -307 b 215 -57 194 -307 215 -218 l 215 213 b 225 265 215 222 217 243 b 268 307 232 286 246 306 l 268 418 b 225 458 246 418 232 436 b 215 513 217 479 215 503 l 215 782 b 11 1032 213 950 186 1036 z "},"[":{"ha":261,"x_min":0,"x_max":0,"o":"m 208 1021 l 21 1021 l 21 -144 l 208 -144 l 208 -11 l 126 -11 l 126 888 l 208 888 z "},"]":{"ha":261,"x_min":0,"x_max":0,"o":"m 11 888 l 93 888 l 93 -11 l 11 -11 l 11 -144 l 199 -144 l 199 1021 l 11 1021 z "},"(":{"ha":269,"x_min":0,"x_max":0,"o":"m 138 1092 b 74 888 117 1035 92 956 b 14 438 43 771 14 606 b 32 192 14 351 19 267 b 139 -214 57 40 90 -90 l 222 -142 b 172 17 204 -96 188 -44 b 119 438 144 121 119 264 b 136 675 119 525 125 604 b 222 1018 157 817 185 925 z "},")":{"ha":269,"x_min":0,"x_max":0,"o":"m 6 1018 b 57 858 22 978 42 914 b 110 438 82 756 110 603 b 93 201 110 353 103 271 b 6 -142 69 65 43 -53 l 89 -214 b 154 -12 115 -143 138 -76 b 214 438 185 104 214 264 b 196 685 214 524 208 608 b 90 1092 171 839 136 969 z "},"—":{"ha":438,"x_min":0,"x_max":0,"o":"m 18 440 l 378 440 l 378 572 l 18 572 z "},"–":{"ha":369,"x_min":0,"x_max":0,"o":"m 18 440 l 311 440 l 311 572 l 18 572 z "},"-":{"ha":222,"x_min":0,"x_max":0,"o":"m 18 308 l 164 308 l 164 440 l 18 440 z "},"„":{"ha":296,"x_min":0,"x_max":0,"o":"m 122 154 l 10 154 l 10 0 l 39 0 l 10 -181 l 76 -181 l 122 0 z m 244 154 l 132 154 l 132 0 l 161 0 l 132 -181 l 199 -181 l 244 0 z "},"“":{"ha":322,"x_min":0,"x_max":0,"o":"m 10 686 l 122 686 l 122 840 l 93 840 l 122 1021 l 56 1021 l 10 840 z m 160 686 l 272 686 l 272 840 l 243 840 l 272 1021 l 206 1021 l 160 840 z "},"”":{"ha":317,"x_min":0,"x_max":0,"o":"m 122 1021 l 10 1021 l 10 867 l 39 867 l 10 686 l 76 686 l 122 867 z m 272 1021 l 160 1021 l 160 867 l 189 867 l 160 686 l 226 686 l 272 867 z "},"‘":{"ha":168,"x_min":0,"x_max":0,"o":"m 7 686 l 119 686 l 119 840 l 90 840 l 119 1021 l 53 1021 l 7 840 z "},"’":{"ha":168,"x_min":0,"x_max":0,"o":"m 118 1021 l 6 1021 l 6 867 l 35 867 l 6 686 l 72 686 l 118 867 z "},"‚":{"ha":168,"x_min":0,"x_max":0,"o":"m 118 154 l 6 154 l 6 0 l 35 0 l 6 -181 l 72 -181 l 118 0 z "},"Ă":{"ha":353,"x_min":0,"x_max":0,"o":"m 207 1285 b 158 1242 207 1285 181 1242 b 113 1286 133 1242 113 1286 l 56 1207 b 158 1140 74 1171 115 1140 b 261 1207 201 1140 236 1168 z m 108 0 l 124 208 l 188 208 l 203 0 l 315 0 l 224 1021 l 89 1021 l -4 0 z m 178 367 l 135 367 l 156 772 z "},"€":{"ha":372,"x_min":0,"x_max":0,"o":"m 10 557 l 53 557 l 53 464 l 10 464 l 10 371 l 53 371 l 53 210 b 68 99 53 168 58 131 b 106 24 74 76 89 46 b 185 -11 122 3 150 -11 b 264 24 222 -11 247 3 b 303 99 281 47 294 75 b 318 210 311 131 317 168 l 318 267 l 208 267 l 208 210 b 206 172 208 197 207 182 b 186 135 201 154 194 135 b 179 146 186 135 182 142 l 181 146 b 168 210 174 160 168 179 l 168 371 l 263 371 l 263 464 l 168 464 l 168 557 l 263 557 l 263 650 l 168 650 l 168 811 b 172 849 168 825 169 838 b 186 886 176 867 182 886 b 197 875 188 886 193 881 l 196 875 b 208 811 203 860 208 839 l 208 754 l 318 754 l 318 811 b 303 921 317 851 311 889 b 264 997 294 944 285 971 b 185 1032 247 1018 222 1032 b 106 997 149 1032 122 1018 b 68 921 88 974 75 944 b 53 811 58 889 53 851 l 53 650 l 10 650 z "},"¢":{"ha":301,"x_min":0,"x_max":0,"o":"m 119 725 b 142 781 119 753 129 781 b 163 725 154 781 163 771 l 163 625 l 268 625 l 268 699 b 174 900 268 786 264 882 l 174 1063 l 99 1063 l 99 899 b 10 692 25 874 10 758 l 10 332 b 100 121 10 268 24 147 l 100 -83 l 174 -83 l 174 124 b 268 325 260 143 267 229 l 268 413 l 163 413 l 163 307 b 140 247 163 261 154 247 b 119 307 126 247 119 279 z "},"$":{"ha":325,"x_min":0,"x_max":0,"o":"m 122 1104 l 122 1015 b 42 926 83 1003 57 969 b 19 783 26 883 19 833 b 29 699 19 754 24 726 b 85 544 42 643 63 593 b 146 425 108 496 126 461 b 172 368 156 407 164 388 b 200 250 189 329 200 289 b 190 164 200 217 197 186 b 156 125 183 140 172 125 b 111 164 133 125 121 140 b 94 251 101 186 96 218 l 4 243 b 33 89 4 186 14 132 b 122 4 51 46 79 15 l 122 -146 l 181 -146 l 181 1 b 272 88 224 8 253 42 b 297 251 290 132 297 190 b 289 338 297 281 294 310 b 232 490 276 392 256 443 b 199 557 221 514 210 536 b 144 669 181 592 160 631 b 117 786 129 707 117 747 b 126 861 117 814 121 840 b 157 896 133 882 142 896 b 201 811 188 897 197 857 l 292 828 b 263 954 289 874 279 919 b 181 1019 244 989 219 1014 l 181 1104 z "},"£":{"ha":374,"x_min":0,"x_max":0,"o":"m 307 760 b 281 949 307 828 300 897 b 160 1032 260 999 224 1033 b 53 949 106 1031 72 997 b 26 779 33 900 26 836 b 53 576 26 728 39 651 b 63 533 56 561 58 547 l 1 533 l 1 440 l 78 440 b 90 322 85 401 90 354 b 75 188 90 283 85 231 b 39 157 65 182 47 169 b -11 46 14 119 -1 86 l 69 -28 b 85 24 75 -6 79 11 b 107 58 92 40 100 58 b 218 -11 131 58 171 -11 b 333 246 281 -11 326 76 l 232 265 b 219 164 231 215 226 182 l 208 135 b 167 174 189 153 176 165 b 193 322 185 228 193 285 b 182 440 193 351 189 397 l 253 440 l 253 533 l 168 533 b 136 779 149 639 136 715 b 165 893 136 788 138 893 b 194 760 196 893 194 788 z "},"¥":{"ha":335,"x_min":0,"x_max":0,"o":"m 26 231 l 97 231 l 97 0 l 213 0 l 213 231 l 285 231 l 285 324 l 213 324 l 213 417 l 285 417 l 285 510 l 224 510 l 314 1021 l 200 1021 b 154 724 190 940 165 804 l 111 1021 l -3 1021 l 86 510 l 26 510 l 26 417 l 97 417 l 97 324 l 26 324 z "},"~":{"ha":563,"x_min":0,"x_max":0,"o":"m 111 865 b 132 939 117 897 125 919 b 182 1000 146 969 164 1000 b 247 950 200 1000 224 976 b 365 882 279 915 311 882 b 435 914 394 882 418 893 b 511 1088 469 961 494 1017 l 432 1142 b 429 1126 432 1139 429 1131 b 411 1068 424 1104 418 1081 b 365 1007 399 1036 382 1007 b 303 1056 349 1007 326 1029 l 296 1063 b 182 1125 269 1090 229 1125 b 110 1093 153 1125 128 1114 b 33 921 74 1044 47 990 z "},"=":{"ha":472,"x_min":0,"x_max":0,"o":"m 18 586 l 414 586 l 414 703 l 18 703 z m 18 324 l 414 324 l 414 440 l 18 440 z "},">":{"ha":472,"x_min":0,"x_max":0,"o":"m 414 544 l 18 889 l 18 740 l 306 494 l 18 249 l 18 100 l 414 444 z "},"<":{"ha":472,"x_min":0,"x_max":0,"o":"m 18 444 l 414 100 l 414 249 l 268 372 b 125 494 221 413 169 456 l 414 740 l 414 889 l 18 544 z "},"−":{"ha":357,"x_min":0,"x_max":0,"o":"m 18 440 l 299 440 l 299 557 l 18 557 z "},"%":{"ha":568,"x_min":0,"x_max":0,"o":"m 236 914 b 133 1032 232 972 207 1032 b 29 914 69 1032 29 981 l 29 618 b 133 499 29 557 63 499 b 236 618 199 499 233 551 z m 200 0 l 488 1021 l 399 1021 l 107 0 z m 153 618 b 133 581 153 603 154 581 b 113 618 110 581 111 603 l 113 914 b 133 951 113 929 115 951 b 153 914 150 951 153 932 z m 564 403 b 461 522 560 461 532 522 b 357 403 397 522 357 469 l 357 107 b 461 -11 357 46 392 -11 b 564 107 525 -11 561 42 z m 481 107 b 461 68 481 93 481 68 b 440 107 443 68 439 90 l 440 403 b 461 440 440 419 443 440 b 481 403 478 440 481 421 z "},"+":{"ha":474,"x_min":0,"x_max":0,"o":"m 18 440 l 168 440 l 168 206 l 264 206 l 264 440 l 414 440 l 414 557 l 264 557 l 264 792 l 168 792 l 168 557 l 18 557 z "},"&":{"ha":389,"x_min":0,"x_max":0,"o":"m 265 457 b 243 332 265 424 254 363 b 193 515 231 367 213 443 b 275 814 232 608 275 704 b 156 1032 275 886 263 1032 b 33 810 50 1032 35 896 b 76 510 33 707 50 606 b -6 197 46 429 -6 301 b 143 -11 -6 124 25 -11 b 253 63 189 -11 233 10 b 343 -11 274 28 282 7 l 343 133 b 294 175 322 144 300 163 b 357 440 322 258 354 347 z m 178 814 b 147 661 178 771 163 706 b 128 814 133 706 128 788 b 153 913 128 853 133 913 b 178 814 172 913 179 857 z m 203 176 b 149 110 185 111 160 110 b 107 199 121 110 107 157 b 135 367 107 246 118 286 b 203 176 147 324 172 243 z "},"@":{"ha":469,"x_min":0,"x_max":0,"o":"m 429 803 b 392 946 429 836 422 896 b 219 1036 357 996 306 1036 b 50 946 136 1036 83 996 b 11 803 18 894 11 836 l 11 211 b 50 74 11 179 18 122 b 219 -15 83 26 138 -15 b 406 96 318 -15 369 36 l 307 165 b 219 117 288 135 264 117 b 149 154 182 117 160 135 b 129 211 136 171 129 194 l 129 803 b 149 864 129 818 136 844 b 219 900 160 885 182 900 b 293 864 257 900 282 885 b 310 811 304 849 308 826 b 261 831 299 821 283 831 b 174 706 194 831 174 774 l 174 382 b 247 254 174 311 200 254 b 318 307 278 254 311 282 l 336 264 l 429 264 z m 314 390 b 297 367 314 374 307 367 b 281 390 290 367 281 376 l 281 694 b 296 718 281 708 289 718 b 314 694 306 718 314 708 z "},"|":{"ha":186,"x_min":0,"x_max":0,"o":"m 124 -347 l 124 1147 l 21 1147 l 21 -347 z "},"©":{"ha":711,"x_min":0,"x_max":0,"o":"m 10 510 b 103 142 10 368 44 238 b 335 -11 158 47 242 -11 b 567 142 428 -11 510 47 b 660 510 625 238 660 368 b 567 879 660 653 625 783 b 335 1032 510 974 428 1032 b 103 879 242 1032 158 974 b 10 510 44 783 10 653 z m 82 510 b 160 822 82 632 111 743 b 335 951 208 903 268 951 b 511 822 400 951 463 903 b 586 510 557 743 586 632 b 511 200 586 388 557 279 b 335 69 463 119 400 69 b 160 200 268 69 208 119 b 82 510 111 279 82 388 z m 342 415 l 342 331 b 340 308 343 325 342 314 b 335 288 338 299 338 288 b 335 292 335 288 336 289 b 326 331 329 301 326 313 l 326 690 b 329 711 326 696 328 706 b 331 715 329 713 331 714 l 335 729 b 336 726 335 728 335 726 b 342 690 340 718 343 706 l 342 606 l 422 606 l 422 690 b 413 757 422 715 418 738 b 333 824 403 790 382 824 b 278 803 308 824 289 817 b 243 690 254 772 243 738 l 243 331 b 251 264 243 306 246 283 b 333 197 261 231 283 197 b 388 218 357 197 378 206 b 422 331 408 247 419 285 l 422 415 z "},"®":{"ha":711,"x_min":0,"x_max":0,"o":"m 10 510 b 103 142 10 368 44 238 b 335 -11 158 47 242 -11 b 567 142 428 -11 510 47 b 660 510 625 238 660 368 b 567 879 660 653 625 783 b 335 1032 510 974 428 1032 b 103 879 242 1032 158 974 b 10 510 44 783 10 653 z m 82 510 b 160 822 82 632 111 743 b 335 951 208 903 268 951 b 511 822 400 951 463 903 b 586 510 557 743 586 632 b 511 200 586 388 557 279 b 335 69 463 119 400 69 b 160 200 268 69 208 119 b 82 510 111 279 82 388 z m 242 808 l 242 213 l 326 213 l 326 442 l 361 213 l 449 213 l 406 483 l 404 483 b 440 633 439 535 440 576 b 335 808 440 743 410 808 z m 332 721 b 353 692 340 721 349 708 b 360 632 358 675 360 653 b 332 546 360 557 340 546 l 326 546 l 326 721 z "},"™":{"ha":424,"x_min":0,"x_max":0,"o":"m 60 950 l 60 557 l 131 557 l 131 950 l 174 950 l 174 1021 l 18 1021 l 18 950 z m 304 557 b 329 801 306 581 326 778 l 329 557 l 389 557 l 389 1021 l 325 1021 b 293 831 321 981 299 871 l 264 1021 l 194 1021 l 194 557 l 253 557 l 253 801 l 278 557 z "},"^":{"ha":490,"x_min":0,"x_max":0,"o":"m 164 1021 l 10 549 l 115 549 l 224 879 l 333 549 l 439 549 l 285 1021 z "},"´":{"ha":458,"x_min":0,"x_max":0,"o":"m 197 1010 l 154 885 l 243 885 l 308 1010 z "},"˘":{"ha":458,"x_min":0,"x_max":0,"o":"m 257 1028 b 208 985 257 1028 231 985 b 163 1029 183 985 163 1029 l 106 950 b 208 883 124 914 165 883 b 311 950 251 883 286 911 z "},"ˇ":{"ha":457,"x_min":0,"x_max":0,"o":"m 265 885 l 322 1010 l 232 1010 l 208 956 l 185 1010 l 94 1010 l 153 885 z "},"¸":{"ha":458,"x_min":0,"x_max":0,"o":"m 256 -75 l 161 -75 l 161 -171 l 192 -171 l 169 -261 l 238 -261 l 256 -171 z "},"ˆ":{"ha":457,"x_min":0,"x_max":0,"o":"m 153 1010 l 94 885 l 185 885 l 208 939 l 232 885 l 322 885 l 265 1010 z "},"¨":{"ha":458,"x_min":0,"x_max":0,"o":"m 85 885 l 188 885 l 188 1021 l 85 1021 z m 229 885 l 332 885 l 332 1021 l 229 1021 z "},"˙":{"ha":457,"x_min":0,"x_max":0,"o":"m 153 881 l 263 881 l 263 1021 l 153 1021 z "},"`":{"ha":458,"x_min":0,"x_max":0,"o":"m 108 1010 l 174 885 l 263 885 l 219 1010 z "},"˝":{"ha":458,"x_min":0,"x_max":0,"o":"m 118 1010 l 75 885 l 164 885 l 229 1010 z m 269 1010 l 226 885 l 315 885 l 381 1010 z "},"¯":{"ha":458,"x_min":0,"x_max":0,"o":"m 115 892 l 301 892 l 301 1001 l 115 1001 z "},"˛":{"ha":458,"x_min":0,"x_max":0,"o":"m 189 0 b 161 -39 175 -17 167 -31 b 158 -43 161 -40 160 -42 b 129 -143 144 -69 129 -111 b 226 -261 129 -206 164 -261 b 282 -244 244 -261 260 -257 l 289 -143 b 240 -168 265 -158 247 -168 b 211 -115 228 -168 211 -156 b 218 -69 211 -99 214 -83 b 246 0 225 -37 235 -17 z "},"˚":{"ha":457,"x_min":0,"x_max":0,"o":"m 133 964 b 208 867 133 907 167 867 b 282 964 249 867 282 907 b 208 1061 282 1021 249 1061 b 133 964 167 1061 133 1021 z m 188 964 b 208 1007 188 990 199 1007 b 229 964 217 1007 229 990 b 208 919 229 938 217 919 b 188 964 199 919 188 938 z "},"˜":{"ha":458,"x_min":0,"x_max":0,"o":"m 115 865 b 171 907 122 875 154 907 b 246 881 199 907 214 881 b 301 915 271 881 290 897 l 301 1031 b 246 990 293 1017 264 990 b 172 1014 219 990 204 1014 b 115 985 151 1014 128 1003 z "},"‟":{"ha":317,"x_min":0,"x_max":0,"o":"m 10 1021 l 10 867 l 56 686 l 122 686 l 88 867 l 122 867 l 122 1021 z m 174 1021 l 174 867 l 219 686 l 286 686 l 251 867 l 286 867 l 286 1021 z "},"‰":{"ha":1157,"x_min":0,"x_max":0,"o":""},"A":{"ha":353,"x_min":0,"x_max":0,"o":"m 108 0 l 124 208 l 188 208 l 203 0 l 315 0 l 224 1021 l 89 1021 l -4 0 z m 178 367 l 135 367 l 156 772 z "},"Á":{"ha":353,"x_min":0,"x_max":0,"o":"m 150 1236 l 107 1111 l 196 1111 l 261 1236 z m 108 0 l 124 208 l 188 208 l 203 0 l 315 0 l 224 1021 l 89 1021 l -4 0 z m 178 367 l 135 367 l 156 772 z "},"":{"ha":322,"x_min":0,"x_max":0,"o":"m 10 686 l 122 686 l 122 840 l 93 840 l 122 1021 l 56 1021 l 10 840 z m 160 686 l 272 686 l 272 840 l 243 840 l 272 1021 l 206 1021 l 160 840 z "},"":{"ha":317,"x_min":0,"x_max":0,"o":"m 122 1021 l 10 1021 l 10 867 l 39 867 l 10 686 l 76 686 l 122 867 z m 272 1021 l 160 1021 l 160 867 l 189 867 l 160 686 l 226 686 l 272 867 z "}}}
